<svg xmlns="http://www.w3.org/2000/svg" width="343.832" height="536.541" viewBox="0 0 343.832 536.541">
  <g id="Group_288" data-name="Group 288" transform="translate(-672.098 -33.878)">
    <g id="Group_133" data-name="Group 133" transform="translate(853.486 33.878)">
      <g id="Group_98" data-name="Group 98" transform="translate(30.106 80.176)">
        <g id="Group_97" data-name="Group 97">
          <g id="Group_96" data-name="Group 96">
            <path id="Path_93" data-name="Path 93" d="M738.35,82.942q9.226-9.1,18-19.168,7.409-8.535,14.523-17.707c.158,1.039.348,2.039.52,3.078q-7,10.843-14.464,20.9c5.295-3.8,10.511-7.735,15.7-11.84a143.609,143.609,0,0,1,.638,23.364,376.726,376.726,0,0,1-40.638,38.743,332.49,332.49,0,0,0-28.383-44.064c1.3-9.183,3.42-19.266,5.861-29.712,4.584,5.144,9.064,10.465,13.425,16.043Q731.213,72.352,738.35,82.942Z" transform="translate(-704.251 -46.067)" fill="#35ab7a"/>
          </g>
        </g>
      </g>
      <g id="Group_101" data-name="Group 101" transform="translate(49.728)">
        <g id="Group_100" data-name="Group 100">
          <g id="Group_99" data-name="Group 99">
            <path id="Path_94" data-name="Path 94" d="M707.234,58.531c3.624-14.017,6.7-24.075,9.215-24.627,2.46-.539,9.327,7.275,16.78,20.483q-5.416,9.245-11.189,17.931Q714.808,65.165,707.234,58.531Z" transform="translate(-707.234 -33.878)" fill="#2b1819"/>
          </g>
        </g>
      </g>
      <g id="Group_104" data-name="Group 104" transform="translate(42.887 21.134)">
        <g id="Group_103" data-name="Group 103">
          <g id="Group_102" data-name="Group 102">
            <path id="Path_95" data-name="Path 95" d="M739.339,37.091A182.233,182.233,0,0,1,751.41,63.915q-10.34,15.51-21.76,29.422a335.359,335.359,0,0,0-23.456-25.5c2.342-9.518,4.612-18.648,6.664-26.587,5.111,4.519,10.163,9.222,15.089,14.129C731.9,49.464,735.682,43.386,739.339,37.091Z" transform="translate(-706.194 -37.091)" fill="#2b1819"/>
          </g>
        </g>
      </g>
      <g id="Group_107" data-name="Group 107" transform="translate(49.55 20.509)">
        <g id="Group_106" data-name="Group 106">
          <g id="Group_105" data-name="Group 105">
            <path id="Path_96" data-name="Path 96" d="M722.191,54.927Q727.973,46.244,733.38,37c.092.211.211.434.309.625-3.657,6.295-7.439,12.373-11.392,18.293-4.927-4.907-9.979-9.61-15.09-14.129.033-.21.118-.421.178-.645Q714.942,47.751,722.191,54.927Z" transform="translate(-707.207 -36.996)" fill="#2b1819"/>
          </g>
        </g>
      </g>
      <g id="Group_110" data-name="Group 110" transform="translate(35.967 48.675)">
        <g id="Group_109" data-name="Group 109">
          <g id="Group_108" data-name="Group 108">
            <path id="Path_97" data-name="Path 97" d="M718.12,68.392q-4.42-6.107-8.985-11.952c.908-3.762,1.828-7.545,2.8-11.261,2.269,2.256,4.512,4.558,6.821,6.894,5.716,6.012,11.334,12.281,16.787,18.858q8.268-10.074,16-20.97c2.032-2.835,4.032-5.742,5.979-8.683a196.569,196.569,0,0,1,6.164,20.812c-2.658,4.545-5.361,9.012-8.163,13.412,3.184-2.539,6.315-5.1,9.433-7.729.336,1.664.645,3.341.953,5.006q-7.114,9.146-14.523,17.707-8.8,10.044-18,19.168Q726.257,99.087,718.567,89.3q-6.541-8.367-13.425-16.043c.894-3.986,1.835-7.959,2.789-11.972C711.357,63.6,714.765,65.945,718.12,68.392Z" transform="translate(-705.142 -41.278)" fill="#fff"/>
          </g>
        </g>
      </g>
      <g id="Group_113" data-name="Group 113" transform="translate(42.755 47.958)">
        <g id="Group_112" data-name="Group 112">
          <g id="Group_111" data-name="Group 111">
            <path id="Path_98" data-name="Path 98" d="M751.521,41.169c.092.224.164.467.243.717-1.947,2.94-3.947,5.848-5.979,8.683q-7.715,10.893-16,20.97c-5.453-6.578-11.07-12.846-16.786-18.858-2.309-2.335-4.552-4.637-6.821-6.893a4.59,4.59,0,0,1,.131-.691,335.331,335.331,0,0,1,23.457,25.5Q741.148,56.689,751.521,41.169Z" transform="translate(-706.174 -41.169)" fill="#59172f"/>
          </g>
        </g>
      </g>
      <g id="Group_116" data-name="Group 116" transform="translate(28.933 110.361)">
        <g id="Group_115" data-name="Group 115">
          <g id="Group_114" data-name="Group 114">
            <path id="Path_99" data-name="Path 99" d="M774.266,55.977c-.494,9.511-2.157,18.1-4.907,24.93-2.921,7.282-5.729,15.346-8.669,23.608a378.957,378.957,0,0,1-36.534,27.758,338.793,338.793,0,0,0-19.292-39.039c.23-3.934.342-7.834.237-11.577,3.776,3.749,7.459,7.63,11.1,11.6-3.71-8.86-7.762-17.424-12.076-25.66a96.327,96.327,0,0,1,1.118-16.944A332.505,332.505,0,0,1,733.629,94.72,376.724,376.724,0,0,0,774.266,55.977Z" transform="translate(-704.073 -50.656)" fill="#c41b16"/>
          </g>
        </g>
      </g>
      <g id="Group_119" data-name="Group 119" transform="translate(24.088 153.998)">
        <g id="Group_118" data-name="Group 118">
          <g id="Group_117" data-name="Group 117">
            <path id="Path_100" data-name="Path 100" d="M727.983,96.178c7.15-4.782,14.241-9.8,21.233-15.208,5.118-3.947,10.15-8.025,15.136-12.294q-1.658,4.775-3.414,9.5c-4.408,4.493-8.86,8.775-13.4,12.965,3.42-1.487,6.893-3.045,10.307-4.644a282.106,282.106,0,0,1-11.59,26.686q-15.4,10.172-31.146,18.622a334.378,334.378,0,0,0-11.774-32.83c.631-3.933,1.322-8.012,1.993-12.2,1.986,1.585,3.98,3.1,5.959,4.657-1.808-2.592-3.618-5.164-5.472-7.683,1.349-8.716,2.539-17.714,3.1-26.462,2.973,5.17,5.789,10.465,8.518,15.872C721.188,80.6,724.7,88.3,727.983,96.178Z" transform="translate(-703.336 -57.29)" fill="#35ab7a"/>
          </g>
        </g>
      </g>
      <g id="Group_122" data-name="Group 122" transform="translate(29.672 152.939)">
        <g id="Group_121" data-name="Group 121">
          <g id="Group_120" data-name="Group 120">
            <path id="Path_101" data-name="Path 101" d="M744.48,81.868c-6.992,5.407-14.083,10.426-21.233,15.208C719.965,89.2,716.453,81.5,712.7,74.06c-2.73-5.407-5.545-10.7-8.518-15.872,0-.322.047-.724.053-1.059A338.772,338.772,0,0,1,723.53,96.168,378.916,378.916,0,0,0,760.063,68.41c-.145.388-.29.8-.447,1.164C754.63,73.843,749.6,77.921,744.48,81.868Z" transform="translate(-704.185 -57.129)" fill="#2b1819"/>
          </g>
        </g>
      </g>
      <g id="Group_125" data-name="Group 125" transform="translate(21.582 196.806)">
        <g id="Group_124" data-name="Group 124">
          <g id="Group_123" data-name="Group 123">
            <path id="Path_102" data-name="Path 102" d="M716.867,96.384q11.426-6.058,22.627-13.037c2.776-1.75,5.552-3.526,8.3-5.361a121.713,121.713,0,0,1-8.2,13.78c-.836.3-1.69.605-2.539.934.605-.059,1.289-.066,1.941-.086-8.558,11.886-17.609,17.957-26.508,13.892-12.116-5.631-10.386-22.351-7.2-42.709,1.171,2.822,2.322,5.67,3.421,8.564C711.7,80.144,714.42,88.182,716.867,96.384Z" transform="translate(-702.955 -63.798)" fill="#fa9652"/>
          </g>
        </g>
      </g>
      <g id="Group_128" data-name="Group 128" transform="translate(23.917 195.688)">
        <g id="Group_127" data-name="Group 127">
          <g id="Group_126" data-name="Group 126">
            <path id="Path_103" data-name="Path 103" d="M746.4,77.836c-.211.335-.395.75-.586,1.1-2.749,1.835-5.525,3.611-8.3,5.361q-11.2,7-22.627,13.037c-2.447-8.2-5.17-16.24-8.156-24.022-1.1-2.894-2.25-5.742-3.421-8.564.053-.382.105-.77.171-1.118a334.394,334.394,0,0,1,11.774,32.83Q731.013,88.031,746.4,77.836Z" transform="translate(-703.31 -63.628)" fill="#fa9652"/>
          </g>
        </g>
      </g>
      <g id="Group_132" data-name="Group 132" transform="translate(0 8.262)">
        <g id="Group_131" data-name="Group 131">
          <g id="Group_130" data-name="Group 130">
            <g id="Group_129" data-name="Group 129">
              <path id="Path_104" data-name="Path 104" d="M760.156,35.134c18.168,98.232-1.908,200.562-55.878,285.659-1.533-1.02-3.072-2.039-4.6-3.039A396.151,396.151,0,0,0,760.156,35.134Z" transform="translate(-699.674 -35.134)" fill="#59172f"/>
            </g>
          </g>
        </g>
      </g>
    </g>
    <g id="Group_171" data-name="Group 171" transform="translate(860.11 158.796)">
      <g id="Group_136" data-name="Group 136" transform="translate(87.945 43.406)">
        <g id="Group_135" data-name="Group 135">
          <g id="Group_134" data-name="Group 134">
            <path id="Path_105" data-name="Path 105" d="M733.541,93.7c6.268-1.585,12.564-3.453,18.9-5.552,5.348-1.8,10.728-3.789,16.1-5.92-.29.73-.553,1.447-.836,2.184q-8.644,4.341-17.28,8.005,7.291-.661,14.636-1.69a107.46,107.46,0,0,1-8.446,15.339,282.92,282.92,0,0,1-40.953,9.6,250.178,250.178,0,0,0-1.611-39.236c4.321-5.433,9.525-11.143,15.063-16.964,1,5.065,1.881,10.2,2.572,15.458Q732.939,84.151,733.541,93.7Z" transform="translate(-714.051 -59.468)" fill="#2b1819"/>
          </g>
        </g>
      </g>
      <g id="Group_139" data-name="Group 139" transform="translate(133.14)">
        <g id="Group_138" data-name="Group 138">
          <g id="Group_137" data-name="Group 137">
            <path id="Path_106" data-name="Path 106" d="M720.922,65.334c7.656-7.676,13.458-13.017,15.3-12.419,1.789.585,3.263,8.242,3.059,19.6q-6.986,3.927-14.031,7.347C723.941,74.944,722.507,70.083,720.922,65.334Z" transform="translate(-720.922 -52.869)" fill="#c41b16"/>
          </g>
        </g>
      </g>
      <g id="Group_142" data-name="Group 142" transform="translate(118.386 12.807)">
        <g id="Group_141" data-name="Group 141">
          <g id="Group_140" data-name="Group 140">
            <path id="Path_107" data-name="Path 107" d="M751.752,62.177a137.132,137.132,0,0,1-2.368,21.91q-12.58,6.088-25.226,10.748a251.79,251.79,0,0,0-5.479-25.377c5.117-5.256,10.05-10.294,14.4-14.642,1.585,4.868,3.059,9.814,4.374,14.859C742.26,67.34,747.01,64.854,751.752,62.177Z" transform="translate(-718.679 -54.816)" fill="#c41b16"/>
          </g>
        </g>
      </g>
      <g id="Group_145" data-name="Group 145" transform="translate(132.785 12.465)">
        <g id="Group_144" data-name="Group 144">
          <g id="Group_143" data-name="Group 143">
            <path id="Path_108" data-name="Path 108" d="M725.551,69.288q7.035-3.424,14.03-7.347l-.04.526c-4.742,2.677-9.492,5.164-14.3,7.5-1.315-5.045-2.789-9.992-4.374-14.859a3.5,3.5,0,0,1,.355-.342C722.808,59.513,724.242,64.374,725.551,69.288Z" transform="translate(-720.868 -54.764)" fill="#c41b16"/>
          </g>
        </g>
      </g>
      <g id="Group_148" data-name="Group 148" transform="translate(103.007 27.85)">
        <g id="Group_147" data-name="Group 147">
          <g id="Group_146" data-name="Group 146">
            <path id="Path_109" data-name="Path 109" d="M726.563,74.449c-.349-3.756-.79-7.466-1.27-11.136,2.013-2.085,4.046-4.177,6.078-6.209.605,2.315,1.191,4.657,1.8,7.045,1.408,6.052,2.658,12.228,3.684,18.549q9.166-3.374,18.293-7.472c2.388-1.059,4.782-2.177,7.163-3.342a147.077,147.077,0,0,1-3.927,15.773c-3.44,1.934-6.874,3.8-10.36,5.578,3.026-.434,6.012-.9,9.031-1.414-.414,1.2-.855,2.4-1.282,3.6-5.374,2.131-10.755,4.124-16.1,5.92-6.335,2.1-12.63,3.966-18.9,5.552q-.6-9.541-1.855-18.773c-.691-5.256-1.565-10.413-2.572-15.458,2.092-2.236,4.2-4.447,6.348-6.676C724.018,68.779,725.326,71.594,726.563,74.449Z" transform="translate(-716.341 -57.103)" fill="#fff"/>
          </g>
        </g>
      </g>
      <g id="Group_151" data-name="Group 151" transform="translate(118.037 27.449)">
        <g id="Group_150" data-name="Group 150">
          <g id="Group_149" data-name="Group 149">
            <path id="Path_110" data-name="Path 110" d="M749.679,71.671q-.049.266-.118.552c-2.381,1.164-4.775,2.283-7.163,3.342q-9.107,4.1-18.293,7.472c-1.026-6.321-2.276-12.5-3.684-18.549-.6-2.388-1.19-4.729-1.8-7.045a2.933,2.933,0,0,1,.349-.4,251.739,251.739,0,0,1,5.479,25.377Q737.084,77.752,749.679,71.671Z" transform="translate(-718.626 -57.042)" fill="#59172f"/>
          </g>
        </g>
      </g>
      <g id="Group_154" data-name="Group 154" transform="translate(69.178 60.37)">
        <g id="Group_153" data-name="Group 153">
          <g id="Group_152" data-name="Group 152">
            <path id="Path_111" data-name="Path 111" d="M772.529,91.68a59.283,59.283,0,0,1-12.63,14.234c-4.65,3.6-9.531,7.742-14.563,11.958a284.17,284.17,0,0,1-34.138,4.072,253.557,253.557,0,0,0,2.368-32.54c1.632-2.453,3.19-4.927,4.545-7.387,1.006,3.855,1.914,7.762,2.762,11.7.96-7.124,1.592-14.2,1.94-21.147a71.058,71.058,0,0,1,7.15-10.524,250.163,250.163,0,0,1,1.611,39.236A282.923,282.923,0,0,0,772.529,91.68Z" transform="translate(-711.198 -62.047)" fill="#fa9652"/>
          </g>
        </g>
      </g>
      <g id="Group_157" data-name="Group 157" transform="translate(46.827 88.392)">
        <g id="Group_156" data-name="Group 156">
          <g id="Group_155" data-name="Group 155">
            <path id="Path_112" data-name="Path 112" d="M729.632,98.656c6.433-.368,12.919-.921,19.483-1.763,4.8-.605,9.6-1.329,14.438-2.2q-2.881,2.457-5.8,4.848c-4.559,1.223-9.051,2.309-13.583,3.282,2.776.342,5.617.658,8.42.914a207.623,207.623,0,0,1-17.609,12.84c-9.215.48-18.273.566-27.179.2a249.606,249.606,0,0,0,4.848-25.666c1.9-2.3,3.894-4.67,5.92-7.124.684,1.776,1.388,3.512,2.078,5.269q-.266-3.542-.612-7.045c4.176-5.111,8.354-10.472,12.037-15.912-.039,4.466-.223,8.959-.519,13.491C731.158,86.021,730.506,92.329,729.632,98.656Z" transform="translate(-707.8 -66.307)" fill="#2b1819"/>
          </g>
        </g>
      </g>
      <g id="Group_160" data-name="Group 160" transform="translate(68.659 87.727)">
        <g id="Group_159" data-name="Group 159">
          <g id="Group_158" data-name="Group 158">
            <path id="Path_113" data-name="Path 113" d="M730.6,97.457c-6.564.842-13.05,1.394-19.483,1.763.875-6.328,1.526-12.636,1.92-18.858.3-4.532.481-9.025.52-13.491.125-.21.309-.447.447-.664a253.567,253.567,0,0,1-2.368,32.54,284.168,284.168,0,0,0,34.138-4.072c-.236.2-.494.414-.737.585C740.206,96.128,735.4,96.852,730.6,97.457Z" transform="translate(-711.119 -66.206)" fill="#c41b16"/>
          </g>
        </g>
      </g>
      <g id="Group_163" data-name="Group 163" transform="translate(37.605 113.861)">
        <g id="Group_162" data-name="Group 162">
          <g id="Group_161" data-name="Group 161">
            <path id="Path_114" data-name="Path 114" d="M715.048,95.622q9.678.424,19.562.164c2.46-.079,4.927-.171,7.4-.316a90.69,90.69,0,0,1-10.531,5.788c-.651-.118-1.329-.25-2-.355a14.3,14.3,0,0,1,1.289.678c-10.037,4.427-18.188,4.914-22.4-1.085-5.69-8.235,1.776-18.385,11.557-30.317-.309,2.269-.652,4.539-1.033,6.828C717.876,83.163,716.58,89.393,715.048,95.622Z" transform="translate(-706.398 -70.179)" fill="#35ab7a"/>
          </g>
        </g>
      </g>
      <g id="Group_166" data-name="Group 166" transform="translate(46.255 113.203)">
        <g id="Group_165" data-name="Group 165">
          <g id="Group_164" data-name="Group 164">
            <path id="Path_115" data-name="Path 115" d="M735.464,95.541c-.263.138-.533.335-.789.487-2.474.145-4.94.237-7.4.316q-9.886.266-19.562-.164c1.532-6.229,2.828-12.458,3.848-18.615.382-2.289.724-4.558,1.033-6.828.184-.23.375-.46.539-.658a249.607,249.607,0,0,1-4.848,25.666C717.191,96.107,726.249,96.022,735.464,95.541Z" transform="translate(-707.713 -70.079)" fill="#35ab7a"/>
          </g>
        </g>
      </g>
      <g id="Group_170" data-name="Group 170" transform="translate(0 5.953)">
        <g id="Group_169" data-name="Group 169">
          <g id="Group_168" data-name="Group 168">
            <g id="Group_167" data-name="Group 167">
              <path id="Path_116" data-name="Path 116" d="M847,53.774C821.448,124.117,769.642,182.6,702.5,217.08c-.605-1.243-1.21-2.486-1.815-3.71A296.842,296.842,0,0,0,847,53.774Z" transform="translate(-700.681 -53.774)" fill="#59172f"/>
            </g>
          </g>
        </g>
      </g>
    </g>
    <g id="Group_204" data-name="Group 204" transform="translate(672.098 116.738)">
      <g id="Group_173" data-name="Group 173">
        <g id="Group_172" data-name="Group 172">
          <path id="Path_117" data-name="Path 117" d="M738.125,500.156S688.6,463.024,672.1,441.035L844.007,46.475Z" transform="translate(-672.098 -46.475)" fill="#fa9652"/>
        </g>
      </g>
      <g id="Group_175" data-name="Group 175" transform="translate(171.909)">
        <g id="Group_174" data-name="Group 174">
          <path id="Path_118" data-name="Path 118" d="M804.1,500.156s49.55-37.132,66.053-59.121L698.233,46.475Z" transform="translate(-698.233 -46.475)" fill="#fa9652"/>
        </g>
      </g>
      <g id="Group_177" data-name="Group 177" transform="translate(254.914 316.061)">
        <g id="Group_176" data-name="Group 176">
          <path id="Path_119" data-name="Path 119" d="M766.026,94.525c-9.656,11.13-39.8,30.725-55.174,38.427l22.864,99.193s49.55-37.131,66.054-59.121Z" transform="translate(-710.852 -94.525)" fill="#35ab7a"/>
        </g>
      </g>
      <g id="Group_179" data-name="Group 179" transform="translate(0 316.061)">
        <g id="Group_178" data-name="Group 178">
          <path id="Path_120" data-name="Path 120" d="M705.816,94.525c9.669,11.13,39.808,30.725,55.187,38.427l-22.877,99.193S688.6,195.013,672.1,173.024Z" transform="translate(-672.098 -94.525)" fill="#35ab7a"/>
        </g>
      </g>
      <g id="Group_181" data-name="Group 181" transform="translate(66.024 0.003)">
        <g id="Group_180" data-name="Group 180">
          <path id="Path_121" data-name="Path 121" d="M682.136,500.15H893.887L788.023,46.475Z" transform="translate(-682.136 -46.475)" fill="#ffe7cb"/>
        </g>
      </g>
      <g id="Group_183" data-name="Group 183" transform="translate(107.504 174.334)">
        <g id="Group_182" data-name="Group 182">
          <path id="Path_122" data-name="Path 122" d="M688.442,352.323,752.849,72.979l64.408,279.344Z" transform="translate(-688.442 -72.979)" fill="#59172f"/>
        </g>
      </g>
      <g id="Group_185" data-name="Group 185" transform="translate(258.71 334.472)">
        <g id="Group_184" data-name="Group 184">
          <path id="Path_123" data-name="Path 123" d="M713.962,144.776a366.5,366.5,0,0,0,61.226-37.052l-4.46-10.4a364.722,364.722,0,0,1-59.3,36.454Z" transform="translate(-711.429 -97.324)" fill="#c41b16"/>
        </g>
      </g>
      <g id="Group_187" data-name="Group 187" transform="translate(272.773 377.846)">
        <g id="Group_186" data-name="Group 186">
          <path id="Path_124" data-name="Path 124" d="M716.211,169.492c12.4-8.156,41.137-28.265,65.968-54.543l-4.743-11.031c-22.509,24.706-49.853,44.591-63.87,54.082Z" transform="translate(-713.567 -103.918)" fill="#c41b16"/>
        </g>
      </g>
      <g id="Group_189" data-name="Group 189" transform="translate(21.358 334.472)">
        <g id="Group_188" data-name="Group 188">
          <path id="Path_125" data-name="Path 125" d="M736.571,144.776a365.948,365.948,0,0,1-61.226-37.052l4.441-10.4a365.464,365.464,0,0,0,59.331,36.454Z" transform="translate(-675.345 -97.324)" fill="#c41b16"/>
        </g>
      </g>
      <g id="Group_191" data-name="Group 191" transform="translate(2.44 377.846)">
        <g id="Group_190" data-name="Group 190">
          <path id="Path_126" data-name="Path 126" d="M738.431,169.492c-12.4-8.156-41.144-28.265-65.962-54.543l4.736-11.031c22.509,24.706,49.859,44.591,63.877,54.082Z" transform="translate(-672.469 -103.918)" fill="#c41b16"/>
        </g>
      </g>
      <g id="Group_193" data-name="Group 193" transform="translate(30.035 378.335)">
        <g id="Group_192" data-name="Group 192">
          <path id="Path_127" data-name="Path 127" d="M676.664,113.316l14.642,10.618,3.327-19.942h0Z" transform="translate(-676.664 -103.992)" fill="#fa9652"/>
        </g>
      </g>
      <g id="Group_195" data-name="Group 195" transform="translate(21.442 361.224)">
        <g id="Group_194" data-name="Group 194">
          <path id="Path_128" data-name="Path 128" d="M693.535,112.412l-14.351-11.021-3.827,19.848h0Z" transform="translate(-675.358 -101.391)" fill="#fade99"/>
        </g>
      </g>
      <g id="Group_197" data-name="Group 197" transform="translate(53.106 384.813)">
        <g id="Group_196" data-name="Group 196">
          <path id="Path_129" data-name="Path 129" d="M698.349,115.99l-14.336-11.013-3.842,19.856h0Z" transform="translate(-680.172 -104.977)" fill="#fade99"/>
        </g>
      </g>
      <g id="Group_199" data-name="Group 199" transform="translate(297.751 377.311)">
        <g id="Group_198" data-name="Group 198">
          <path id="Path_130" data-name="Path 130" d="M735.31,113.16l-14.642,10.618-3.3-19.942h0Z" transform="translate(-717.365 -103.837)" fill="#fa9652"/>
        </g>
      </g>
      <g id="Group_201" data-name="Group 201" transform="translate(306.12 360.201)">
        <g id="Group_200" data-name="Group 200">
          <path id="Path_131" data-name="Path 131" d="M718.637,112.256l14.337-11.021,3.833,19.848h0Z" transform="translate(-718.637 -101.235)" fill="#fade99"/>
        </g>
      </g>
      <g id="Group_203" data-name="Group 203" transform="translate(274.457 383.79)">
        <g id="Group_202" data-name="Group 202">
          <path id="Path_132" data-name="Path 132" d="M713.823,115.835l14.344-11.013,3.827,19.856h0Z" transform="translate(-713.823 -104.822)" fill="#fade99"/>
        </g>
      </g>
    </g>
  </g>
</svg>
