<?xml version="1.0" encoding="UTF-8"?>
<!DOCTYPE svg PUBLIC "-//W3C//DTD SVG 1.1//EN" "http://www.w3.org/Graphics/SVG/1.1/DTD/svg11.dtd">
<!-- Creator: CorelDRAW 2018 (64 Bit) -->
<svg xmlns="http://www.w3.org/2000/svg" xml:space="preserve" width="326.813mm" height="220.98mm" version="1.1" style="shape-rendering:geometricPrecision; text-rendering:geometricPrecision; image-rendering:optimizeQuality; fill-rule:evenodd; clip-rule:evenodd"
viewBox="0 0 32681.34 22098"
 xmlns:xlink="http://www.w3.org/1999/xlink">
 <defs>
  <style type="text/css">
   <![CDATA[
    .fil6 {fill:none}
    .fil5 {fill:black}
    .fil2 {fill:url(#id0)}
    .fil3 {fill:url(#id1)}
    .fil1 {fill:url(#id2)}
    .fil0 {fill:url(#id3)}
    .fil4 {fill:url(#id4)}
   ]]>
  </style>
  <linearGradient id="id0" gradientUnits="userSpaceOnUse" x1="9676.31" y1="8139.43" x2="15001.42" y2="10763.49">
   <stop offset="0" style="stop-opacity:1; stop-color:#792B90"/>
   <stop offset="0.290196" style="stop-opacity:1; stop-color:#41175E"/>
   <stop offset="0.580392" style="stop-opacity:1; stop-color:#5E2988"/>
   <stop offset="1" style="stop-opacity:1; stop-color:#08032C"/>
  </linearGradient>
  <linearGradient id="id1" gradientUnits="userSpaceOnUse" x1="15509.14" y1="8731.56" x2="18213.72" y2="8731.56">
   <stop offset="0" style="stop-opacity:1; stop-color:#050229"/>
   <stop offset="0.470588" style="stop-opacity:1; stop-color:#2C1353"/>
   <stop offset="1" style="stop-opacity:1; stop-color:#91278F"/>
  </linearGradient>
  <linearGradient id="id2" gradientUnits="userSpaceOnUse" x1="3242.63" y1="11891.21" x2="13336.37" y2="11891.21">
   <stop offset="0" style="stop-opacity:1; stop-color:#311B71"/>
   <stop offset="1" style="stop-opacity:1; stop-color:#AF2789"/>
  </linearGradient>
  <linearGradient id="id3" gradientUnits="userSpaceOnUse" x1="3231.71" y1="12324.34" x2="9005.78" y2="12324.34">
   <stop offset="0" style="stop-opacity:1; stop-color:#8F288F"/>
   <stop offset="0.368627" style="stop-opacity:1; stop-color:#4A155D"/>
   <stop offset="0.478431" style="stop-opacity:1; stop-color:#4F2378"/>
   <stop offset="1" style="stop-opacity:1; stop-color:#05022A"/>
  </linearGradient>
  <linearGradient id="id4" gradientUnits="userSpaceOnUse" x1="13446.46" y1="9229.17" x2="17351.74" y2="9229.17">
   <stop offset="0" style="stop-opacity:1; stop-color:#3D1F78"/>
   <stop offset="0.490196" style="stop-opacity:1; stop-color:#802A90"/>
   <stop offset="1" style="stop-opacity:1; stop-color:#AC2789"/>
  </linearGradient>
 </defs>
 <g id="Capa_x0020_1">
  <metadata id="CorelCorpID_0Corel-Layer"/>
  <g id="_2497863924192">
   <path class="fil0" d="M6443.95 10878.26c795.65,1.69 1768.96,183.84 2561.84,862.88 -826.35,1434.4 -2710.35,2188.68 -3431.2,2007.44 -183.41,91.04 -1518.38,-127.64 -2222.02,-954.58 -38.23,-44.94 -86.72,-94.1 -120.86,-142.66 1083.56,-1679.7 2803.23,-1808.95 3212.24,-1773.08z"/>
   <path class="fil1" d="M11925.52 9383.79c-1245.59,28.22 -2175.67,1371.13 -3209.45,2731.88 -424.4,558.63 -1007.78,1008.65 -1552.68,1243.33 -860.94,370.79 -2395.49,715.16 -3677.35,-424.88 -31.62,-28.13 -211.78,-238.03 -243.41,-267.42 885.81,1093.21 2049.39,1710.24 3545.92,1731.91 3076.48,-47.19 5342.36,-2637.18 6547.81,-4405.49 -345.36,-358.56 -823.97,-600.53 -1410.84,-609.33z"/>
   <path class="fil2" d="M13511.03 7699.53c-1821.98,-20.13 -3510.71,2191.64 -4366.64,3503.99 1475.54,-2110.91 2565.22,-2511.81 3427.26,-2268.69 399.54,91.55 624.18,263.61 848.82,491.18 586.31,506.91 1761.13,555.79 2112.87,-153.19 -213.3,-671.56 -806.89,-1565.2 -2022.31,-1573.29z"/>
   <path class="fil3" d="M17258.78 8158.06c-1031.54,-45.87 -1360.74,682.76 -1749.63,1149.06 608.64,-474.77 1009.09,-1154.97 1842.58,-691.45 159.63,98.23 381.72,190.91 861.98,-50.92 -137.87,-203.57 -468.67,-398.83 -954.93,-406.69z"/>
   <path class="fil4" d="M16741.01 8410.6c-252.65,33.4 -476.16,166.74 -1207.67,862.22 -360.8,538.21 -1361.04,738.9 -2086.87,175.05 309.24,246.13 801.29,591.07 1463.78,599.87 894.33,-2.66 1769.23,-532.76 2441.48,-1432.07 -152.21,-107.22 -325.25,-199.18 -610.72,-205.07z"/>
   <path class="fil5" d="M21527.85 11891.41c672.1,0 648.24,1176.84 117.85,1311.17 -208.45,52.79 -404.64,-10.2 -523.08,-182.1 -78.75,-114.28 -115.62,-295.22 -120.95,-474.65 -8.98,-302.1 140.87,-654.42 526.18,-654.42zm-841.08 665.12c0,368.62 116.94,656.99 405.06,827.31 254.19,150.26 724.49,141.47 915.34,-152.31l39.01 -58.79c0,282.11 -12.47,570.24 -260.82,707.47 -263.12,145.38 -726.95,36.08 -726.95,-228.2l-303.18 0c0,329.65 340.35,528.17 674.81,528.17 181.13,0 302.82,6.37 475.26,-62.65 282.22,-112.94 424.5,-396.09 424.5,-729.61l0 -1721.47 -283.62 0 0 234.75c-18.97,-13.9 -40.23,-55 -90.42,-105.19 -131.24,-131.26 -277.47,-168.68 -476.81,-168.68 -502.16,0 -792.18,435.21 -792.18,929.2z"/>
   <path class="fil5" d="M24667.21 13241.2c-201.13,0 -352.08,-75.24 -352.08,-273.87 0,-307.26 396.48,-310.53 632.87,-345.17 41.06,-6.01 97.22,-14.58 138.74,-27.52l118.37 -47.9c0,273.82 37.52,516.74 -275.01,644.39 -71.03,29.01 -164.98,50.07 -262.89,50.07zm-596.58 -1046.57l0 39.12 293.4 0c12.24,-52.51 12.25,-103.43 33.08,-152.76 59.42,-140.74 251.35,-189.58 407.02,-189.58 239.74,0 400.98,68.98 400.98,303.22 0,147.74 -153.43,181.38 -276.48,202.76 -243.98,42.38 -563.36,53.73 -766.02,212 -212.52,165.98 -230.44,606.92 18.12,785.79 208.79,150.25 556.47,125.29 775.92,37.68 100.49,-40.11 194.68,-118.52 258.24,-191.66 20.3,87.13 26.16,264.09 254.28,264.09 87.55,0 157.54,-18.41 215.16,-48.91l0 -234.74c-215.83,50.29 -185.82,-5.15 -185.82,-469.49 0,-195.62 -0.02,-391.24 0,-586.86 0.01,-115.36 4.11,-166.13 -31.84,-251.81 -164.76,-392.67 -927.13,-324.44 -1171.38,-149.51 -109.08,78.12 -224.66,243.78 -224.66,430.66z"/>
   <path class="fil5" d="M27826.14 12497.84c0,298.29 16.08,561.2 232.23,775.19 312.46,309.36 880.2,298.26 1154.22,44.11 64.88,-60.18 113.72,-131.9 155.67,-215.99 32.9,-65.93 81.36,-207.16 81.36,-300.1l-303.18 0c-1.03,46.31 -29.85,141.1 -45.86,179.1 -27.94,66.29 -52.23,89.98 -98.34,136.39 -226.45,227.95 -863.14,209.7 -863.14,-550.23 0,-190.19 49.03,-363.68 129.73,-476.68 156.31,-218.88 521.01,-264.84 722.69,-101.96 56.11,45.31 133.25,160.97 135.36,255.86l312.96 0c0,-270.57 -202.58,-486.54 -448.5,-568.68 -205.05,-68.49 -497.76,-66.53 -692.64,24.06 -155.49,72.28 -243.16,164.68 -329.93,296.02 -28.34,42.9 -52.93,91.79 -70.64,144.54 -36.77,109.48 -71.99,217.66 -71.99,358.37z"/>
   <path class="fil5" d="M26163.55 11343.68l0 322.77 -303.18 0 0 264.09 273.84 0c22.54,0 29.34,6.81 29.34,29.34l0 1506.29 293.4 0 0 -1506.29c0,-22.53 6.8,-29.34 29.34,-29.34l322.74 0 0 -234.75c0,-22.53 -6.81,-29.34 -29.34,-29.34l-322.74 0c0,-326.17 -32.86,-440.15 254.28,-440.15 62.45,0 85.75,15.31 136.92,19.57l0 -264.09c-112.17,-9.34 -57.99,-19.57 -244.5,-19.57 -131.68,0 -230.88,43.56 -309.14,101.64 -63.3,46.98 -130.96,172.71 -130.96,279.83z"/>
   <path class="fil5" d="M23131.76 12028.35l0.84 -294.28c0.7,-89.71 18.58,-67.62 -284.46,-67.62l0 1799.72 293.4 0 0 -723.8c0,-439.99 88.92,-719.71 504.01,-787.04 184.77,-29.96 151.25,100.27 151.25,-328 -261.28,0 -409.25,52.1 -563.12,248.65 -53.59,68.46 -48.88,74.16 -85.58,129.59 -12.23,18.49 -3.6,8.13 -16.34,22.78z"/>
   <path class="fil5" d="M18046.18 12106.6l0 -430.37 -68.47 0 0 1789.94 68.47 0 0 -968.33c0,-220.57 45.33,-385.39 130.07,-525.24 67.35,-111.16 226.97,-257.25 398.04,-257.25 191.3,0 340.5,12.71 445.96,199.54 30.27,53.62 54.1,141.06 61.9,211.98 19.77,179.72 12.02,954.77 10.45,1221.96 -0.7,117.98 -18.15,117.34 78.27,117.34l0 -1154.17c0,-300.39 224.91,-596.65 498.78,-596.65 181.47,0 328.12,-1.27 451.47,164.69 70.91,95.4 96.21,249.37 96.21,412.4l0 1173.73c55.42,0 78.24,7.68 78.24,-29.35l0 -1095.47c0,-294.03 -42.9,-513.22 -274.09,-645.31 -200.75,-114.69 -682.16,-103.84 -847.6,305.97 -4.47,11.05 -4.19,10.96 -8.76,20.59 -1.28,2.7 -5.45,10.67 -6.64,12.92 -0.87,1.66 -2.85,4.89 -3.57,6.21 -0.72,1.32 -2.24,4.23 -3.6,6.18 -1.51,-67.72 -59.1,-173.09 -99.9,-222.86 -19.56,-23.87 -31.09,-43.26 -54.96,-62.41 -320.4,-257.09 -791.03,-114.63 -929.3,296.47 -4.4,13.1 -2.46,9.43 -7.6,21.74l-13.37 25.75z"/>
   <polygon class="fil5" points="27082.86,13466.17 27376.27,13466.17 27376.27,11666.45 27082.86,11666.45 "/>
   <path class="fil5" d="M13527.83 12243.53c0,166.87 34.82,372.54 79.56,497.52 52.1,145.54 111.22,254.48 201.23,375.83 156.21,210.59 476.82,398.19 755.89,398.19 240.2,0 358.65,6.79 580.29,-104.32 217.66,-109.13 397.75,-295.8 487.24,-520.15 38.45,-96.4 106.06,-269.63 106.06,-402.54 -132.7,0 -28.94,5.7 -171.78,366.16 -141.09,356.05 -494.36,592.38 -884.45,592.38 -362.5,0 -620.33,-135.95 -800.71,-363.15 -167.33,-210.77 -275.09,-488.12 -275.09,-849.7 0,-424.51 204.17,-921.94 593.16,-1118.45 354.73,-179.2 813.67,-151.78 1121.44,98.12 144.79,117.57 290.29,326.68 290.29,521.5 67.91,0 109.31,24.4 47.89,-165.26 -16.46,-50.81 -42.11,-113.03 -67.76,-157.21 -284.57,-490.07 -942.79,-610.57 -1398.27,-381.82 -134.25,67.43 -264.43,160.43 -352.12,273.84 -44.19,57.16 -92.81,119.15 -127.2,185.77 -113.24,219.39 -185.67,479.99 -185.67,753.29z"/>
   <path class="fil5" d="M16070.62 12576.09c0,-437.85 264.49,-860.74 684.6,-860.74 154.17,0 245.99,-1.2 385.72,83.73 533.56,324.34 507.44,1263.77 -7.17,1546.85 -44.97,24.73 -75.82,39.14 -130.37,55.45 -458.21,137.03 -932.78,-203.03 -932.78,-825.29zm723.72 929.2c231.59,0 461.51,-99.29 592.59,-268.07 366.35,-471.72 261.35,-1254.93 -214.35,-1508.91 -214.11,-114.32 -529.23,-128.76 -732.36,-5.21 -46.08,28.03 -89.64,51.24 -127.58,87.59 -21.85,20.95 -40.92,31.63 -57.58,50 -133.37,147.05 -207.81,313.14 -241.88,511.24l-21.51 204.09c3.58,204.04 75.75,495.22 213.5,647.99 111.81,124.01 212.37,207.57 391.44,254.07 47.62,12.37 134.84,27.21 197.73,27.21z"/>
   <polygon class="fil5" points="27082.86,11353.46 27376.27,11353.46 27376.27,10991.56 27082.86,10991.56 "/>
  </g>
  <rect class="fil6" width="32681.34" height="22098"/>
 </g>
</svg>
