<?xml version="1.0" encoding="UTF-8"?>
<!DOCTYPE svg PUBLIC "-//W3C//DTD SVG 1.1//EN" "http://www.w3.org/Graphics/SVG/1.1/DTD/svg11.dtd">
<!-- Creator: CorelDRAW 2018 (64 Bit) -->
<svg xmlns="http://www.w3.org/2000/svg" xml:space="preserve" width="326.813mm" height="220.98mm" version="1.1" style="shape-rendering:geometricPrecision; text-rendering:geometricPrecision; image-rendering:optimizeQuality; fill-rule:evenodd; clip-rule:evenodd"
viewBox="0 0 32681.34 22098"
 xmlns:xlink="http://www.w3.org/1999/xlink">
 <defs>
  <style type="text/css">
   <![CDATA[
    .fil0 {fill:none}
    .fil1 {fill:#212123}
    .fil2 {fill:#373435;fill-rule:nonzero}
   ]]>
  </style>
 </defs>
 <g id="Capa_x0020_1">
  <metadata id="CorelCorpID_0Corel-Layer"/>
  <rect class="fil0" width="32681.34" height="22098"/>
  <g id="_2497837647344">
   <path class="fil1" d="M18964.78 10790.26l192.21 -1129.2c237.4,-0.25 576.64,-19.78 760.88,116.69 354.12,262.33 355.12,1012.51 -953.09,1012.51zm-1547.64 2032.85l727.24 0.33c162.3,0 297.63,-65.68 401.33,-169.39 123.76,-123.75 144.77,-205.48 177.9,-404.7 28.59,-171.92 57.54,-333.05 84.93,-497.68 14.28,-85.84 26.15,-157.04 40.71,-244.64 12.02,-72.2 37.92,-177.71 44.19,-253.06l285.36 0c50.96,96.31 103.92,194.01 161.44,290.38 125.98,211.09 267.93,496.87 404.25,725.28l80.35 145.56c96.83,191.49 265.18,355.23 506.99,396.65 204.06,34.94 660.13,11.6 903.92,11.6 -75.66,-143.01 -157.66,-278.65 -237.17,-416.76 -55.15,-95.79 -701.97,-1202.68 -714.02,-1247.83 219.91,0 554.27,-130.82 710.59,-276.28 319.99,-297.73 424.07,-704.56 208.86,-1094.96 -185.56,-336.63 -656.26,-511.19 -1053.73,-563.3 -450.48,-59.06 -1600.36,-39.17 -2124.8,-39.17l-608.34 3637.97z"/>
   <path class="fil1" d="M12889.04 11123.18c0,1365.96 1217.53,1700.26 2401.76,1700.26l1117.64 0 299.21 -1806.94c5.64,-52.05 -23.72,-112 -63.94,-152.36 -41.39,-41.55 -72.28,-73.88 -152.03,-73.88l-1284.11 0c-250.39,0 -238.61,314.08 -273.46,463.71l523.15 0 -178.35 1093.87c-275.96,0 -486.77,-76.34 -684.62,-219.01 -507.54,-365.95 -645.48,-1095.4 -353.78,-1675.45 119.82,-238.27 274.87,-437.32 507.05,-574.94 706.49,-418.77 1356.99,-103.37 1574.62,-280.19 97.26,-79.04 145.72,-283.41 145.72,-413.11l-1236.56 0c-1216.7,0 -2342.3,667.61 -2342.3,1938.04z"/>
   <path class="fil1" d="M10332.7 10290.9l368.59 1212.76 -1117.66 0c11.49,-43.05 231.56,-383.17 272.79,-452.5l460.09 -740.8c16.03,-20.78 6.74,-8.6 16.19,-19.46zm-2104.52 2532.54c148.19,0 334.75,19.49 455.43,-20.18 164.86,-54.22 311.68,-347.78 420.67,-530.51 32.37,-54.28 59.06,-93.59 90.82,-146.98 32.45,-54.54 58.49,-97.54 91.28,-146.51l1569.47 0 132.05 450.56c128.42,407.86 467.72,393.62 783.48,393.62 198.16,0 396.33,0 594.49,0 -4.18,-50.38 -117.99,-374.04 -140.16,-454.34l-1001.27 -3183.96c-525.19,0 -900.87,228.68 -1105.18,547.52l-1339.12 2180.27c-30.62,49.76 -49.39,84.47 -81.19,132.84l-470.77 777.67z"/>
   <path class="fil1" d="M21972.93 12823.44l2484.99 0c104.09,0 182.86,-76.45 217.84,-150.77 23.46,-49.87 55.64,-250.71 55.64,-324.83l-1486.25 0c15.9,-191.05 178.35,-959.2 178.35,-1093.87l1010.64 0c213.83,0 249.69,-302.35 249.69,-463.71l-1177.1 0c8.84,-106.19 39.32,-247.71 56.08,-348.17 20.44,-122.61 40.57,-243.51 59.46,-356.7 29.19,-175.12 29.18,-329.16 201.37,-404.99 91.59,-40.33 876.09,-20.39 1014.92,-19.5 139.25,0.88 230.83,-32.16 277.37,-126.9 18,-36.67 66.08,-295.19 67.28,-348.86l-2092.62 0c-184.93,0 -336.71,68.57 -431.2,163.29 -126.96,127.28 -151.68,196.16 -187.12,407.38l-462 2807.72c-13.31,80.06 -37.34,177.12 -37.34,259.91z"/>
   <path class="fil1" d="M25849.05 10207.67c0,450.64 337.45,690.14 633.51,912.17 170.06,127.54 505.7,316.38 638.92,502.51 312,435.97 -24.44,773.05 -452.02,773.05 -327.07,0 -368.54,-22.92 -658.41,-126.35 -209.18,-74.64 -275.93,-98.58 -430.39,107.64 -27.78,37.09 -148.83,192.23 -159.64,232.73 184.89,15.38 1010.07,431.53 1956.82,161.44 91.26,-26.04 157,-57.54 232.64,-88.39l217.24 -115.66c250.84,-165.68 530.11,-435.96 530.11,-777.8 0,-185.13 5.9,-251.51 -71.59,-427.78 -19.36,-44 -35.3,-78.51 -59.66,-118.71 -354.87,-585.58 -1212.32,-734.64 -1212.32,-1177.53 0,-264.91 299.33,-451.81 570.71,-451.81 425.47,0 701.08,233.41 840.57,-27.4 23.65,-44.21 106.94,-213.73 110.64,-257.96 -52.88,-4.4 -168.24,-48.55 -230.93,-66.33 -237.05,-67.22 -497.13,-106.63 -759.05,-112.02l-122.98 0c-375.5,7.77 -747.96,87.48 -1054.92,257.68 -244.28,135.46 -519.25,429.51 -519.25,800.52z"/>
   <path class="fil1" d="M5707.52 9660.73l927.41 0c0,61.07 -18.24,133.51 -28.86,197.04l-426.32 2569.93c-20.09,120.41 -39.89,275.2 -67.97,395.74 470.82,0 1082.33,112.2 1257.27,-347.88 41.72,-109.72 102.61,-534.63 127.03,-681.46l232.73 -1384.31c139.32,-838.7 50.46,-740.47 868.44,-748.57 258.65,-2.56 274.38,-137.7 301.86,-304.53 9.71,-58.9 26.39,-121.26 30.57,-171.55l-2770.34 0c-168.35,0 -293.6,-3.79 -363.93,99.79 -37.66,55.49 -41.52,95.54 -53.94,171.96 -9.56,58.77 -28.98,144.22 -33.95,203.84z"/>
   <path class="fil1" d="M3222.53 12823.44l665.83 0c177.37,0 346.23,-66.99 437.21,-157.3 129.14,-128.2 151.48,-187.76 187.87,-406.61 57.36,-344.88 111.96,-684.21 168.18,-1020.83 29.07,-174.12 57.06,-341.96 84.92,-509.55l210.6 -1275.63c13.27,-79.34 40.77,-193.98 40.77,-268.38l-689.62 0c-250.32,0 -455.41,126.98 -547.04,332.82 -65.51,147.19 -440.98,2549.88 -523.05,3043.89 -13.72,82.52 -35.67,169.81 -35.67,261.59z"/>
   <path class="fil2" d="M28917.27 11864.46c90.95,0 179.69,23.29 266.48,70.11 86.54,46.58 154.19,113.52 202.48,200.29 48.3,87.04 72.57,177.75 72.57,271.87 0,93.42 -23.78,183.37 -71.58,269.42 -47.56,86.31 -114.24,153.23 -200.29,200.8 -86.05,47.79 -176.02,71.57 -269.66,71.57 -93.9,0 -183.87,-23.78 -269.92,-71.57 -86.05,-47.57 -152.97,-114.49 -200.78,-200.8 -47.79,-86.05 -71.82,-176 -71.82,-269.42 0,-94.12 24.27,-184.83 72.81,-271.87 48.78,-86.77 116.43,-153.71 202.98,-200.29 86.78,-46.82 175.52,-70.11 266.73,-70.11zm0 89.73c-76.25,0 -150.54,19.61 -222.6,58.59 -72.08,38.97 -128.47,94.88 -169.16,167.44 -40.69,72.57 -61.05,148.07 -61.05,226.51 0,78.21 20.1,152.99 60.08,224.56 39.96,71.6 95.84,127.49 167.68,167.44 71.82,39.96 146.84,60.06 225.05,60.06 77.95,0 152.97,-20.1 224.8,-60.06 71.82,-39.95 127.73,-95.84 167.44,-167.44 39.72,-71.57 59.58,-146.35 59.58,-224.56 0,-78.44 -20.36,-153.94 -60.81,-226.51 -40.44,-72.56 -96.84,-128.47 -169.16,-167.44 -72.32,-38.98 -146.35,-58.59 -221.85,-58.59zm-238.04 751.63l0 -582.47 200.53 0c68.64,0 118.15,5.38 148.8,16.17 30.89,10.79 55.16,29.41 73.54,56.39 18.15,26.72 27.22,55.16 27.22,85.3 0,42.43 -15.2,79.69 -45.84,111.07 -30.41,31.62 -70.85,49.27 -121.35,53.19 20.58,8.59 37.26,18.87 49.51,30.89 23.54,22.8 52.22,61.29 86.31,115.46l71.09 114 -114.25 0 -51.98 -91.69c-40.68,-72.31 -73.78,-117.67 -98.78,-135.8 -17.16,-13.24 -42.16,-19.86 -75.26,-19.62l-55.42 0 0 247.11 -94.12 0zm94.12 -328.01l114.25 0c54.67,0 91.93,-8.08 111.79,-24.27 19.86,-16.18 29.9,-37.76 29.9,-64.23 0,-17.17 -4.9,-32.61 -14.45,-46.09 -9.56,-13.73 -22.8,-23.79 -39.72,-30.4 -17.16,-6.62 -48.54,-10.05 -94.63,-10.05l-107.14 0 0 175.04z"/>
  </g>
 </g>
</svg>
