<?xml version="1.0" encoding="utf-8"?>
<!-- Generator: Adobe Illustrator 23.0.2, SVG Export Plug-In . SVG Version: 6.00 Build 0)  -->
<svg version="1.1" id="Layer_1" xmlns="http://www.w3.org/2000/svg" xmlns:xlink="http://www.w3.org/1999/xlink" x="0px" y="0px"
	 viewBox="0 0 275.4 214.2" style="enable-background:new 0 0 275.4 214.2;" xml:space="preserve">
<style type="text/css">
	.st0{fill:#FADE99;}
	.st1{fill:#35AB7A;}
	.st2{fill:#2B1819;}
	.st3{fill:#FFFFFF;}
	.st4{fill:#59172F;}
	.st5{fill:#C41B16;}
	.st6{fill:#FA9652;}
	.st7{fill:#E3D7BA;}
	.st8{fill:#00B078;}
	.st9{fill:#F3FDDB;}
	.st10{fill:#D30000;}
	.st11{fill:#60092D;}
	.st12{fill:#FF9137;}
	.st13{fill:#2E1718;}
	.st14{fill:#FF0042;}
	.st15{fill:none;}
	.st16{fill:#F8A046;}
	.st17{fill:#ED3151;}
	.st18{fill:#5BC4C7;}
	.st19{opacity:0.15;fill:#F8A046;}
	.st20{opacity:0.15;fill:#ED3151;}
	.st21{opacity:0.15;fill:#5BC4C7;}
	.st22{fill:#2E2C42;}
</style>
<g>
	<g id="Group_331">
		<path id="Path_240" class="st16" d="M264,78.3c-5.5,5.2-14.3,4.9-19.5-0.6C187.8,17.2,92.4,14.1,31.9,70.9
			c-5.5,5.2-14.3,4.9-19.5-0.6S7.5,56,13,50.8c71.6-67.2,184.4-63.6,251.6,8C269.8,64.3,269.6,73.1,264,78.3
			C264,78.3,264,78.3,264,78.3z"/>
	</g>
	<g id="Group_332" transform="translate(27.937 46.09)">
		<path id="Path_241" class="st16" d="M206.3,65.4c-5.5,5.2-14.3,4.9-19.5-0.6C145.4,20.7,76,18.5,31.9,59.9
			c-5.5,5.2-14.3,4.9-19.5-0.6C7.2,53.7,7.5,45,13,39.8l0,0c55.2-51.8,142.2-49,193.9,6.2C212.1,51.5,211.8,60.2,206.3,65.4
			C206.3,65.4,206.3,65.4,206.3,65.4z"/>
	</g>
	<g id="Group_333" transform="translate(54.31 95.146)">
		<path id="Path_242" class="st16" d="M151.8,53.3c-5.5,5.2-14.3,4.9-19.5-0.6c0,0,0,0,0,0c-26.9-28.6-71.8-30-100.5-3.2
			c-5.5,5.2-14.3,4.9-19.5-0.6S7.5,34.6,13,29.4l0,0C52.8-7.9,115.1-5.9,152.4,33.8C157.6,39.3,157.4,48,151.8,53.3
			C151.8,53.2,151.8,53.2,151.8,53.3z"/>
	</g>
	<path id="Path_243" class="st16" d="M159.2,158.3c11.6,12.4,11,31.9-1.4,43.6c-12.4,11.6-31.9,11-43.6-1.4
		c-11.6-12.4-11-31.9,1.4-43.6C128,145.3,147.5,145.9,159.2,158.3C159.2,158.3,159.2,158.3,159.2,158.3z"/>
</g>
</svg>
