<?xml version="1.0" encoding="utf-8"?>
<!-- Generator: Adobe Illustrator 23.0.2, SVG Export Plug-In . SVG Version: 6.00 Build 0)  -->
<svg version="1.1" id="Layer_1" xmlns="http://www.w3.org/2000/svg" xmlns:xlink="http://www.w3.org/1999/xlink" x="0px" y="0px"
	 viewBox="0 0 218.4 218.5" style="enable-background:new 0 0 218.4 218.5;" xml:space="preserve">
<style type="text/css">
	.st0{fill:#59172F;}
	.st1{fill:#FADE99;}
	.st2{fill:#35AB7A;}
	.st3{fill:#2B1819;}
	.st4{fill:#FFFFFF;}
	.st5{fill:#C41B16;}
	.st6{fill:#FA9652;}
	.st7{fill:#E3D7BA;}
	.st8{fill:#00B078;}
	.st9{fill:#F3FDDB;}
	.st10{fill:#D30000;}
	.st11{fill:#60092D;}
	.st12{fill:#FF9137;}
	.st13{fill:#2E1718;}
	.st14{fill:#FF0042;}
	.st15{fill:#ED3151;}
	.st16{opacity:0.15;}
	.st17{fill:none;}
	.st18{fill:#F8A046;}
	.st19{fill:#5BC4C7;}
	.st20{opacity:0.15;fill:#F8A046;}
	.st21{opacity:0.15;fill:#ED3151;}
	.st22{opacity:0.15;fill:#5BC4C7;}
	.st23{fill:#2E2C42;}
	.st24{fill:none;stroke:#2E2C42;stroke-width:3;stroke-miterlimit:10;}
	.st25{enable-background:new    ;}
	.st26{fill:#2F2A44;}
	.st27{fill:#26C6C9;}
	.st28{fill:#FF9D1A;}
</style>
<g id="Group_354" transform="translate(-674.471 -160.882)">
	<circle id="Ellipse_5" class="st14" cx="784" cy="270.3" r="108.1"/>
	<path id="Path_249" class="st4" d="M723.7,330c6.6-3.2,13.1-6.5,19.3-10.1c8,7.5,23.4,2.9,38.9-5.6c-1.7-0.9-3.4-1.8-5.1-2.8
		c2.4,0.6,4.7,1.2,7.1,1.7c0.7-0.4,1.3-0.8,2-1.2l0.1,0c2.5-1.4,5-3,7.4-4.5c4.8-2.9,9.6-5.9,14.1-8.6c-4-0.8-12-1.7-16-2.6
		c2.5-0.2,9.1-0.4,11.6-0.7c-0.3,0-0.6,0-0.9,0c4.7-0.5,9.4-1,14-1.7c9.4-6.3,17.8-19.8,23-34.4c-3-0.2-11.8,0.4-14.7,0.1
		c3.3-0.8,12.5-2.5,15.9-3.4c3-9.3,4.9-18.9,5.7-28.6h0c0-0.3,0-0.5,0-0.8c0-0.6,0.1-1.3,0.1-1.9c0-0.4,0-0.7,0-1
		c0-0.9,0-1.7,0.1-2.4c0-0.1,0-0.2,0-0.4c0-5.8-0.7-9.7-1.8-10.4c-1.1-0.8-4.2,0.5-8.4,3c-7.6,4.4-19.1,12.6-30.5,20.9v0
		c-0.1,0-0.1,0.1-0.1,0.1c0.1,3.3,0.9,9.4,0.9,12.7c-0.9-2.6-2.5-8.2-3.5-10.8c-1.2,0.9-2.4,1.8-3.6,2.8c0.2,5.3-0.1,16.1-0.1,21.4
		c-1.3-4.2-2.4-14.1-3.8-18.3c-7.8,6.4-14.6,12.8-17.9,19.1c-0.1,0.3-0.3,0.5-0.5,0.8c-1.4,2.7-3.1,5.2-4.9,7.6
		c-0.1,0.1-0.2,0.2-0.3,0.4c-1.8,2.5-3.8,5-6,7.4c-0.6,3.6-1.4,12.9-2.1,16.5c-0.5-2.4-0.8-10.5-1.3-12.9
		c-6.3,6.8-12.1,11.8-16.8,17.5c0.1,0.6-0.1,8.3,0,8.9c-0.2-0.4-1.2-6.8-1.3-7.2c-4.7,5.9-6.9,11.4-3.6,16.6
		c-6.2,3.4-12.6,6.6-19.1,9.5C722.5,327.9,723.1,328.9,723.7,330z"/>
</g>
</svg>
