<?xml version="1.0" encoding="utf-8"?>
<!-- Generator: Adobe Illustrator 23.0.2, SVG Export Plug-In . SVG Version: 6.00 Build 0)  -->
<svg version="1.1" id="Layer_1" xmlns="http://www.w3.org/2000/svg" xmlns:xlink="http://www.w3.org/1999/xlink" x="0px" y="0px"
	 viewBox="0 0 386.8 57.6" style="enable-background:new 0 0 386.8 57.6;" xml:space="preserve">
<style type="text/css">
	.st0{fill:#FADE99;}
	.st1{fill:#35AB7A;}
	.st2{fill:#2B1819;}
	.st3{fill:#FFFFFF;}
	.st4{fill:#59172F;}
	.st5{fill:#C41B16;}
	.st6{fill:#FA9652;}
	.st7{fill:#E3D7BA;}
	.st8{fill:#F3FDDB;}
	.st9{fill:#FF9137;}
	.st10{fill:#00B078;}
	.st11{fill:#60092D;}
	.st12{fill:#D30000;}
	.st13{fill:#2E1718;}
	.st14{fill:#FFE7C6;}
	.st15{fill:#FCE08D;}
	.st16{fill:#FF0042;}
</style>
<g id="Group_82" transform="translate(92.21 -137.315) rotate(30)">
	<g id="Group_69" transform="translate(60.274 14.264)">
		
			<rect id="Rectangle_10" x="-29.2" y="70.8" transform="matrix(-0.8647 0.5024 -0.5024 -0.8647 259.2813 78.7862)" class="st16" width="296.5" height="7.1"/>
	</g>
	<g id="Group_70" transform="translate(274.629 0)">
		<path id="Path_77" class="st16" d="M63.7-3.2l-74.6,9.5l25.5,18.9l3.6,31.4L63.7-3.2z"/>
	</g>
	<g id="Group_81" transform="translate(0 136.984)">
		<g id="Group_71" transform="translate(0 24.457)">
			<path id="Path_78" class="st16" d="M31.5,12.5l-12.6,7.3L-10.9,4.1L1.7-3.2L31.5,12.5z"/>
		</g>
		<g id="Group_72" transform="translate(35.152 4.169)">
			<path id="Path_79" class="st16" d="M31.5,12.5l-12.6,7.3L-10.9,4L1.7-3.2L31.5,12.5z"/>
		</g>
		<g id="Group_73" transform="translate(12.582 15.6)">
			<path id="Path_80" class="st16" d="M34.2,12.5l-15.3,8.9L-10.9,5.6L4.4-3.2L34.2,12.5z"/>
		</g>
		<g id="Group_74" transform="translate(27.929 11.174)">
			<path id="Path_81" class="st16" d="M26.6,12.5l-7.7,4.4L-10.9,1.2l7.7-4.4L26.6,12.5z"/>
		</g>
		<g id="Group_75" transform="translate(47.289 0)">
			<path id="Path_82" class="st16" d="M26.6,12.5l-7.7,4.4L-10.9,1.2l7.7-4.4L26.6,12.5z"/>
		</g>
		<g id="Group_76" transform="translate(28.515 40.177)">
			<path id="Path_83" class="st16" d="M3-3.2L-9.6,4l-1.3,33.7l12.6-7.3L3-3.2z"/>
		</g>
		<g id="Group_77" transform="translate(63.667 19.875)">
			<path id="Path_84" class="st16" d="M3-3.2L-9.6,4l-1.3,33.7l12.6-7.3L3-3.2z"/>
		</g>
		<g id="Group_78" transform="translate(41.096 31.303)">
			<path id="Path_85" class="st16" d="M5.7-3.2L-9.6,5.7l-1.3,33.7l15.4-8.9L5.7-3.2z"/>
		</g>
		<g id="Group_79" transform="translate(56.448 26.877)">
			<path id="Path_86" class="st16" d="M-2-3.2l-7.7,4.4l-1.3,33.7l7.7-4.4L-2-3.2z"/>
		</g>
		<g id="Group_80" transform="translate(75.796 15.703)">
			<path id="Path_87" class="st16" d="M-1.9-3.2l-7.7,4.4l-1.3,33.7l7.7-4.4L-1.9-3.2z"/>
		</g>
	</g>
</g>
</svg>
