<?xml version="1.0" encoding="utf-8"?>
<!-- Generator: Adobe Illustrator 23.0.2, SVG Export Plug-In . SVG Version: 6.00 Build 0)  -->
<svg version="1.1" id="Layer_1" xmlns="http://www.w3.org/2000/svg" xmlns:xlink="http://www.w3.org/1999/xlink" x="0px" y="0px"
	 viewBox="0 0 132.4 107.6" style="enable-background:new 0 0 132.4 107.6;" xml:space="preserve">
<style type="text/css">
	.st0{fill:#FADE99;}
	.st1{fill:#35AB7A;}
	.st2{fill:#2B1819;}
	.st3{fill:#FFFFFF;}
	.st4{fill:#59172F;}
	.st5{fill:#C41B16;}
	.st6{fill:#FA9652;}
	.st7{fill:#E3D7BA;}
	.st8{fill:#00B078;}
	.st9{fill:#F3FDDB;}
	.st10{fill:#D30000;}
	.st11{fill:#60092D;}
	.st12{fill:#FF9137;}
	.st13{fill:#2E1718;}
	.st14{fill:#FF0042;}
	.st15{fill:#ED3151;}
	.st16{opacity:0.15;}
	.st17{fill:none;}
	.st18{fill:#F8A046;}
	.st19{fill:#5BC4C7;}
	.st20{opacity:0.15;fill:#F8A046;}
	.st21{opacity:0.15;fill:#ED3151;}
	.st22{opacity:0.15;fill:#5BC4C7;}
	.st23{fill:#2E2C42;}
	.st24{fill:none;stroke:#2E2C42;stroke-width:3;stroke-miterlimit:10;}
	.st25{enable-background:new    ;}
	.st26{fill:#2F2A44;}
</style>
<g class="st25">
	<path class="st26" d="M61.5,14.3c-5.8,1.6-11.1,3.9-16,6.8c-4.9,2.9-9.3,6.2-12.9,10c-3.7,3.8-6.6,7.9-8.7,12.3
		c-2.1,4.4-3.2,8.9-3.2,13.5c0,2.8,0.6,5.2,1.7,7.2c1.1,2.1,2.4,3.1,3.9,3.1c1.6,0,3-0.3,4-0.9c1.1-0.6,2.2-1.3,3.3-2.1
		c1.1-0.7,2.4-1.4,3.8-2.1c1.4-0.6,3.3-0.9,5.7-0.9c2.5,0,4.8,0.5,7,1.6c2.2,1.1,4.1,2.5,5.8,4.4s3,4.1,4,6.8c1,2.6,1.5,5.4,1.5,8.4
		c0,3.3-0.7,6.3-2.1,9c-1.4,2.8-3.2,5.1-5.5,7.1c-2.3,2-5,3.6-8.1,4.8c-3.1,1.2-6.3,1.8-9.8,1.8c-4.6,0-8.9-1-12.9-3.1
		c-4-2.1-7.5-4.9-10.5-8.4s-5.4-7.7-7.1-12.4c-1.8-4.7-2.6-9.7-2.6-15.1c0-8.5,1.6-16.3,4.8-23.4S15,29.3,20.3,24
		c5.3-5.3,11.5-9.6,18.7-12.8s14.6-5,22.5-5.5V14.3z M129.2,14.3c-5.6,1.6-10.9,3.9-15.9,6.8c-5,2.9-9.3,6.2-12.9,10
		c-3.6,3.8-6.5,7.9-8.6,12.3c-2.1,4.4-3.2,8.9-3.2,13.5c0,2.8,0.5,5.2,1.6,7.2c1.1,2.1,2.4,3.1,4,3.1c1.6,0,3-0.3,4-0.9
		c1.1-0.6,2.1-1.3,3.2-2.1c1.1-0.7,2.3-1.4,3.8-2.1c1.4-0.6,3.3-0.9,5.7-0.9c2.5,0,4.8,0.5,7,1.6c2.2,1.1,4.1,2.5,5.8,4.4
		s3,4.1,4,6.8c1,2.6,1.5,5.4,1.5,8.4c0,3.3-0.7,6.3-2,9c-1.3,2.8-3.1,5.1-5.4,7.1c-2.3,2-5,3.6-8.2,4.8c-3.1,1.2-6.4,1.8-9.9,1.8
		c-4.6,0-8.9-1-12.9-3.1c-4-2.1-7.5-4.9-10.5-8.4s-5.4-7.7-7.1-12.4c-1.8-4.7-2.6-9.7-2.6-15.1c0-8.5,1.6-16.3,4.8-23.4
		S82.7,29.3,88.1,24c5.4-5.3,11.6-9.6,18.7-12.8c7.1-3.2,14.5-5,22.4-5.5V14.3z"/>
</g>
</svg>
