<?xml version="1.0" encoding="utf-8"?>
<!-- Generator: Adobe Illustrator 23.0.2, SVG Export Plug-In . SVG Version: 6.00 Build 0)  -->
<svg version="1.1" id="Layer_1" xmlns="http://www.w3.org/2000/svg" xmlns:xlink="http://www.w3.org/1999/xlink" x="0px" y="0px"
	 viewBox="0 0 468.7 475.4" style="enable-background:new 0 0 468.7 475.4;" xml:space="preserve">
<style type="text/css">
	.st0{fill:#FA9652;}
	.st1{fill:#35AB7A;}
	.st2{fill:#FFFFFF;}
	.st3{fill:#59172F;}
	.st4{fill:#C41B16;}
	.st5{fill:#FADE99;}
	.st6{fill:#00B078;}
	.st7{fill:#F3FDDB;}
	.st8{fill:#D30000;}
	.st9{fill:#60092D;}
	.st10{fill:#FF9137;}
	.st11{fill:#2E1718;}
	.st12{fill:#FF0042;}
	.st13{fill:#ED3151;}
	.st14{fill:#BA0505;}
	.st15{fill:#F8A046;}
	.st16{fill:#5BC4C7;}
	.st17{fill:#2E2C42;}
	.st18{enable-background:new    ;}
	.st19{fill:#2F2A44;}
	.st20{opacity:0.13;fill:#FFFFFF;}
	.st21{fill:#26C6C9;}
	.st22{fill:#FF9D1A;}
	.st23{fill:#2B1819;}
	.st24{fill:#FCE08D;}
	.st25{fill:#FFE7C6;}
</style>
<g id="Group_354_1_" transform="translate(-674.471 -160.882)">
	<circle id="Ellipse_5_1_" class="st12" cx="908.7" cy="396.8" r="230.8"/>
	<path id="Path_249_1_" class="st20" d="M753.2,524.9c15.4-7.3,30.4-15.2,44.9-23.6c18.7,17.5,54.3,6.7,90.5-13c-4-2.2-8-4.3-12-6.5
		c5.5,1.4,10.9,2.7,16.4,4c1.6-0.9,3.1-1.9,4.7-2.8l0.2,0c5.8-3.3,11.6-6.9,17.3-10.4c11.2-6.8,22.2-13.7,32.8-20
		c-9.2-1.9-27.9-4-37.1-6.1c5.8-0.5,21.1-1,26.9-1.6c-0.7,0-1.5-0.1-2.2-0.1c10.9-1.2,21.8-2.3,32.7-3.9
		c21.8-14.6,41.4-45.9,53.4-79.9c-6.9-0.5-27.4,0.9-34.3,0.2c7.8-1.8,29.2-5.8,36.9-7.9c7-21.5,11.4-43.8,13.2-66.4h0
		c0.1-0.6,0.1-1.2,0.1-1.8c0.1-1.5,0.2-2.9,0.2-4.4c0-0.8,0.1-1.6,0.1-2.4c0.1-2,0.1-3.9,0.1-5.7c0-0.3,0-0.6,0-0.9
		c0-13.4-1.5-22.5-4.1-24.2c-2.5-1.7-9.7,1.2-19.6,6.9c-17.7,10.1-44.5,29.4-70.9,48.7v0c-0.1,0.1-0.2,0.1-0.3,0.2
		c0.3,7.6,2,22,2.1,29.6c-2.2-6.1-5.8-19-8.1-25.1c-2.8,2.2-5.6,4.3-8.3,6.4c0.5,12.3-0.1,37.5-0.2,49.7c-3.1-9.8-5.5-32.7-8.8-42.5
		c-18.3,14.9-33.9,29.7-41.6,44.4c-0.3,0.6-0.7,1.3-1.1,1.9c-3.3,6.2-7.1,12.1-11.3,17.8c-0.2,0.3-0.4,0.5-0.6,0.8
		c-4.3,5.8-8.9,11.5-13.9,17.2c-1.3,8.4-3.1,30.1-4.8,38.4c-1.1-5.6-1.8-24.4-2.9-30c-14.7,15.8-28.1,27.5-39,40.8
		c0.1,1.3-0.2,19.3-0.1,20.7c-0.4-1-2.7-15.7-3.1-16.7c-10.9,13.8-16.1,26.5-8.4,38.7c-14.4,7.9-29.2,15.3-44.5,22.2
		C750.3,519.9,751.8,522.3,753.2,524.9z"/>
	<g>
		<path class="st2" d="M924.7,278.4v102.8h98.3c8.3,0,15,6.7,15,15v0c0,8.3-6.7,15-15,15h-98.3v103.8c0,8.3-6.7,15-15,15h-2
			c-8.3,0-15-6.7-15-15V411.4h-98.3c-8.3,0-15-6.7-15-15v0c0-8.3,6.7-15,15-15h98.3V278.4c0-8.3,6.7-15,15-15h2
			C918,263.4,924.7,270.1,924.7,278.4z"/>
	</g>
</g>
</svg>
