<?xml version="1.0" encoding="utf-8"?>
<!-- Generator: Adobe Illustrator 23.0.2, SVG Export Plug-In . SVG Version: 6.00 Build 0)  -->
<svg version="1.1" id="Layer_1" xmlns="http://www.w3.org/2000/svg" xmlns:xlink="http://www.w3.org/1999/xlink" x="0px" y="0px"
	 viewBox="0 0 270.6 134.1" style="enable-background:new 0 0 270.6 134.1;" xml:space="preserve">
<style type="text/css">
	.st0{fill:#FADE99;}
	.st1{fill:#35AB7A;}
	.st2{fill:#2B1819;}
	.st3{fill:#FFFFFF;}
	.st4{fill:#59172F;}
	.st5{fill:#C41B16;}
	.st6{fill:#FA9652;}
	.st7{fill:#E3D7BA;}
	.st8{fill:#F3FDDB;}
	.st9{fill:#FF9137;}
	.st10{fill:#00B078;}
	.st11{fill:#60092D;}
	.st12{fill:#D30000;}
	.st13{fill:#2E1718;}
	.st14{fill:#FFE7C6;}
	.st15{fill:#FCE08D;}
	.st16{fill:#FF0042;}
</style>
<g id="Group_7" transform="translate(202.263 13.288) rotate(50)">
	<path id="Path_25" class="st10" d="M-33.4,113.8c-6.6,5.3-13,10.9-19.3,16.8c-5.4,5-10.7,10.2-15.9,15.7c-0.1-1-0.2-2-0.3-3
		c5.2-6.5,10.5-12.8,16-18.8c-5.5,3.1-11,6.4-16.5,9.9c-0.2-7.6,0.2-15.3,1.3-22.9C-54.4,99.2-39.9,88-24.6,78
		c6.9,15.9,15.1,31.3,24.4,46c-2,8.8-5,18.4-8.2,28.3c-4.1-5.5-8.1-11.2-11.9-17.1C-25,128.3-29.3,121.2-33.4,113.8z"/>
	<path id="Path_26" class="st8" d="M-26.7,205.4c-4.8,13.3-8.6,22.8-11.2,23c-2.5,0.3-8.6-8.1-14.9-21.8c4.1-5.6,8.2-11,12.5-16.3
		C-35.9,195.6-31.4,200.6-26.7,205.4z"/>
	<path id="Path_27" class="st10" d="M-53.1,206c-3.9-8.9-7.2-18-9.7-27.4c7.5-9.2,15.5-18,23.9-26.4c6.7,9.6,13.7,18.7,21.1,27.4
		c-3.1,9-6.1,17.7-8.8,25.2c-4.7-4.9-9.3-10.1-13.8-15.4C-44.7,194.8-48.9,200.3-53.1,206z"/>
	<path id="Path_28" class="st10" d="M-40.3,190.4c-4.3,5.3-8.4,10.7-12.5,16.3c-0.1-0.2-0.2-0.4-0.3-0.7c4.2-5.7,8.4-11.2,12.8-16.6
		c4.5,5.3,9.1,10.4,13.8,15.4c-0.1,0.2-0.2,0.4-0.2,0.6C-31.4,200.6-35.9,195.5-40.3,190.4z"/>
	<path id="Path_29" class="st12" d="M-21.7,155.7c2.5,4.3,5.2,8.5,7.9,12.6c-1.2,3.6-2.5,7.2-3.7,10.7c-2.1-2.4-4.1-4.9-6.2-7.5
		c-5.2-6.5-10.2-13.2-15-20.2c-6,6-11.9,12.2-17.6,18.7c-2.2,2.6-4.4,5.2-6.6,7.8c-1.8-6.9-3.3-13.9-4.4-20.9
		c3-4.2,6.1-8.2,9.2-12.2c-3.3,2.1-6.7,4.3-10,6.5c-0.2-1.7-0.3-3.3-0.5-5c5.2-5.4,10.5-10.7,15.9-15.7c6.3-5.9,12.8-11.5,19.3-16.8
		c4.1,7.4,8.4,14.6,13,21.5c3.8,5.9,7.8,11.5,11.9,17.1c-1.2,3.8-2.5,7.6-3.8,11.3C-15.4,161-18.6,158.4-21.7,155.7z"/>
	<path id="Path_30" class="st11" d="M-62.7,178.6c-0.1-0.3-0.1-0.5-0.2-0.8c2.2-2.6,4.4-5.3,6.6-7.8c5.7-6.5,11.6-12.8,17.6-18.7
		c4.8,7,9.8,13.7,15,20.2c2,2.5,4.1,5,6.2,7.5c-0.1,0.2-0.2,0.4-0.2,0.6c-7.3-8.6-14.4-17.7-21.1-27.4
		C-47.2,160.6-55.2,169.4-62.7,178.6z"/>
	<path id="Path_31" class="st9" d="M-68,111.4c1.3-9.2,3.6-17.4,6.9-23.7c3.5-6.8,7-14.4,10.5-22.1c12.3-8.5,25.2-16.2,38.4-23.2
		c4.4,13.7,9.7,27.1,15.8,40.1c-0.5,3.8-1,7.6-1.2,11.2c-3.4-4.1-6.8-8.2-10-12.5c2.9,9,6.2,17.8,9.8,26.3c-0.4,5.5-1.2,11-2.5,16.4
		c-9.3-14.7-17.5-30.1-24.4-46C-39.9,88-54.4,99.1-68,111.4z"/>
	<path id="Path_32" class="st10" d="M-11.8,41.5c-7.5,3.9-14.9,8.1-22.3,12.6c-5.4,3.3-10.7,6.7-16,10.4c1.4-3,2.8-5.9,4.2-8.9
		c4.7-3.9,9.5-7.6,14.3-11.2c-3.5,1.1-7.1,2.2-10.6,3.4C-38,39.2-33.4,31-28.4,23C-17.7,17.4-6.9,12.5,3.9,8.1
		c2.4,11.2,5.4,22.3,8.9,33.3c-0.9,3.8-2,7.7-3,11.7c-1.8-1.7-3.7-3.4-5.5-5.2c1.6,2.7,3.2,5.4,4.8,8.1c-2.1,8.3-4,17-5.3,25.5
		C1.3,76.1-1,70.6-3.3,65C-6.4,57.4-9.2,49.5-11.8,41.5z"/>
	<path id="Path_33" class="st13" d="M-34,54.1c7.4-4.5,14.8-8.7,22.3-12.6c2.6,8.1,5.4,15.9,8.5,23.6c2.2,5.6,4.6,11.1,7.1,16.4
		c0,0.3-0.1,0.7-0.2,1c-6.1-13-11.4-26.4-15.8-40.1C-25.4,49.3-38.2,57-50.5,65.5c0.2-0.4,0.4-0.7,0.5-1.1
		C-44.7,60.8-39.4,57.3-34,54.1z"/>
	<path id="Path_34" class="st8" d="M4.3,7.3c-7.8,3.1-15.6,6.5-23.4,10.3c-2.9,1.4-5.8,2.8-8.7,4.3c2.8-4.4,5.9-8.6,9.2-12.5
		c0.9-0.2,1.8-0.4,2.6-0.6c-0.6,0-1.3-0.1-1.9-0.1C-8.4-2,1-7,9.5-2.1c11.5,6.8,8.4,22.9,3.6,42.4c-0.9-2.9-1.8-5.8-2.7-8.7
		C8.1,23.7,6.1,15.6,4.3,7.3z"/>
	<path id="Path_35" class="st3" d="M-28.4,23c0.2-0.3,0.4-0.7,0.6-1c2.9-1.5,5.8-2.9,8.7-4.3c7.8-3.8,15.6-7.2,23.4-10.3
		c1.7,8.3,3.8,16.4,6.1,24.3c0.9,2.9,1.8,5.8,2.7,8.7c-0.1,0.3-0.2,0.7-0.3,1.1c-3.5-10.9-6.5-22-8.9-33.3
		C-6.9,12.5-17.7,17.4-28.4,23z"/>
	<g id="Group_6" transform="translate(28.551 0)">
		<path id="Path_36" class="st11" d="M-67.3,220.2c-9.8-97.7,15.6-190.7,76-267.8c3-2.1,5.8-2.4,7.3-1.2
			C-45.4,26.8-75.3,123.2-67.3,220.2z"/>
	</g>
</g>
</svg>
