<?xml version="1.0" encoding="utf-8"?>
<!-- Generator: Adobe Illustrator 23.0.2, SVG Export Plug-In . SVG Version: 6.00 Build 0)  -->
<svg version="1.1" id="Layer_1" xmlns="http://www.w3.org/2000/svg" xmlns:xlink="http://www.w3.org/1999/xlink" x="0px" y="0px"
	 viewBox="0 0 212.8 274.8" style="enable-background:new 0 0 212.8 274.8;" xml:space="preserve">
<style type="text/css">
	.st0{fill:#FADE99;}
	.st1{fill:#35AB7A;}
	.st2{fill:#2B1819;}
	.st3{fill:#FFFFFF;}
	.st4{fill:#59172F;}
	.st5{fill:#C41B16;}
	.st6{fill:#FA9652;}
	.st7{fill:#E3D7BA;}
	.st8{fill:#F3FDDB;}
	.st9{fill:#FF9137;}
	.st10{fill:#00B078;}
	.st11{fill:#60092D;}
	.st12{fill:#D30000;}
	.st13{fill:#2E1718;}
	.st14{fill:#FFE7C6;}
	.st15{fill:#FCE08D;}
	.st16{fill:#FF0042;}
</style>
<g id="Group_9" transform="translate(239.353 51.219) rotate(50)">
	<path id="Path_37" class="st8" d="M-59.1,201c-1.5,9.5-2.3,19.1-2.5,28.8c-0.2,8.6,0.2,17.2,1,25.7c-0.9-0.9-1.9-1.7-2.8-2.6
		c-1.6-9.5-2.6-19.2-3-28.9c-1.9,6.8-3.4,13.7-4.7,20.8c-6.4-7.1-12-14.8-16.9-23c1.4-20.8,5.7-41.3,12.7-60.9
		c15.1,11.5,31.7,20.8,49.5,27.5c4.4,8.9,8.9,18.9,14.1,29.2c-7.4-1.6-14.6-3.6-21.8-6C-42.3,208.7-50.8,205.1-59.1,201z"/>
	<path id="Path_38" class="st9" d="M21.2,272.2c9.6,13.4,17.3,22.9,16.1,25.2c-1.2,2.2-13.8,1.9-31.5-3.4
		c-2.9-7.3-5.5-14.8-7.5-22.4C5.9,272.3,13.5,272.5,21.2,272.2z"/>
	<path id="Path_39" class="st8" d="M5,293.8c-11.4-3.6-22.4-8.4-32.8-14.3c-3.3-13.2-5.3-26.6-6.1-40.2c12.4,3.4,25,5.6,37.8,6.7
		c5.6,9.3,11.5,18.1,16.9,25.6c-7.8,0.2-15.6,0-23.4-0.6C-0.6,278.7,2,286.3,5,293.8z"/>
	<path id="Path_40" class="st3" d="M-1.8,271.7c2.1,7.6,4.6,15.1,7.6,22.4c-0.3-0.1-0.5-0.2-0.8-0.3c-3-7.5-5.5-15.1-7.6-22.8
		c7.8,0.6,15.6,0.8,23.4,0.6c0.2,0.2,0.3,0.4,0.5,0.6C13.5,272.5,5.9,272.3-1.8,271.7z"/>
	<path id="Path_41" class="st10" d="M-18.8,229.9c5.3,1.7,10.5,3.1,15.8,4.4c2.1,3.7,4.2,7.4,6.4,11.1c-3.5-0.3-7.1-0.7-10.6-1.2
		c-9.3-1.3-18.4-3.2-27.5-5.7c0.5,9.7,1.6,19.4,3.5,29c0.7,3.9,1.6,7.7,2.5,11.6c-7.7-4.4-15-9.4-21.9-14.9
		c-1.5-5.9-2.7-11.8-3.7-17.6c-0.7,4.3-1.3,8.7-1.8,13.1c-1.6-1.4-3.1-2.8-4.6-4.2c-0.8-8.5-1.1-17.1-1-25.7
		c0.2-9.6,1-19.2,2.5-28.8c8.3,4.1,16.8,7.7,25.6,10.7c7.1,2.4,14.4,4.4,21.8,6c2,3.9,4,7.9,6.2,11.8
		C-9.9,229.8-14.3,229.9-18.8,229.9z"/>
	<path id="Path_42" class="st11" d="M-27.9,279.5c-0.3-0.2-0.5-0.3-0.8-0.5c-1-3.9-1.8-7.7-2.5-11.6c-1.8-9.6-3-19.2-3.5-29
		c9,2.5,18.2,4.4,27.5,5.7c3.6,0.5,7.1,0.9,10.6,1.2c0.1,0.2,0.3,0.4,0.4,0.7c-12.8-1-25.4-3.3-37.8-6.7
		C-33.2,252.9-31.2,266.4-27.9,279.5z"/>
	<path id="Path_43" class="st12" d="M-88,221.8c-5.8-10-9.8-19.9-11.4-28.5c-1.7-9.2-3.7-19.3-5.3-29.6
		c5.2-16.1,12.3-31.6,21.1-46.2c10.4,11.8,22.2,22.3,35.2,31.3c1.6,3.8,3.5,7.5,5.6,11.1c-5.3-1.7-10.6-3.6-15.9-5.8
		c7.6,6.8,15.7,13,24.3,18.4c3.2,5.1,6.1,10.5,8.7,15.9c-17.7-6.7-34.4-16-49.5-27.5C-82.4,180.5-86.7,201-88,221.8z"/>
	<path id="Path_44" class="st8" d="M-83.8,116.4c-5,8.2-9.4,16.7-13.3,25.5c-2.9,6.5-5.5,13.3-7.9,20.3c-0.6-3.9-1.1-7.9-1.6-12
		c1.9-6.9,4.1-13.6,6.5-20.2c-2.6,3.1-5.1,6.3-7.5,9.6c-1-11.5-1-23,0-34.5c7.1-11.4,15.2-22.2,24.2-32.2c6.3,11,13.7,21.4,22,30.9
		c0.8,4.3,1.7,8.7,2.8,13.2c-2.5-0.8-5-1.6-7.5-2.4c2.7,2,5.5,3.9,8.3,5.7c2.2,9.4,5.2,18.5,8.9,27.4c-5.3-3.7-10.4-7.7-15.3-11.9
		C-71.2,129.8-77.7,123.3-83.8,116.4z"/>
	<path id="Path_45" class="st13" d="M-97.1,141.8c3.9-8.8,8.3-17.3,13.3-25.5c6.1,6.9,12.6,13.5,19.6,19.5c4.9,4.2,10,8.2,15.3,11.9
		c0.1,0.3,0.3,0.7,0.5,1c-13-9-24.8-19.5-35.2-31.3c-8.8,14.5-15.8,30-21.1,46.2c-0.1-0.5-0.1-1-0.2-1.5
		C-102.6,155.1-100,148.3-97.1,141.8z"/>
	<path id="Path_46" class="st9" d="M-83.3,71.9c-6.5,7.1-12.5,14.6-18.1,22.5c-2.1,3-4.2,6.1-6.1,9.2c0.6-6.3,1.7-12.5,3.3-18.7
		c0.7-0.7,1.5-1.3,2.2-2c-0.6,0.3-1.2,0.5-1.9,0.8c4.7-16.6,12.5-26.4,22.3-24.5c13.5,2.6,15.6,21.3,19.9,43.4
		c-2.2-2.5-4.3-5.1-6.3-7.7C-73.6,87.6-78.8,79.9-83.3,71.9z"/>
	<path id="Path_47" class="st9" d="M-107.7,105.1c0.1-0.5,0.1-1,0.1-1.5c2-3.2,4-6.2,6.1-9.2c5.5-7.9,11.6-15.4,18.1-22.5
		c4.6,8.1,9.7,15.8,15.4,23.1c2.1,2.6,4.2,5.2,6.3,7.7c0.1,0.4,0.1,0.8,0.2,1.2c-8.4-9.5-15.7-19.9-22-30.9
		C-92.5,82.9-100.6,93.7-107.7,105.1z"/>
	<g id="Group_8" transform="translate(21.944 0)">
		<path id="Path_48" class="st11" d="M6.3,292.5C-99.3,232.2-138.9,107.6-83.2-0.8c2.7-3.2,2.7-2.8,5.3-4.3
			C-133.9,99.6-98.4,230.5,6.3,292.5z"/>
	</g>
</g>
</svg>
