<?xml version="1.0" encoding="utf-8"?>
<!-- Generator: Adobe Illustrator 23.0.2, SVG Export Plug-In . SVG Version: 6.00 Build 0)  -->
<svg version="1.1" id="Layer_1" xmlns="http://www.w3.org/2000/svg" xmlns:xlink="http://www.w3.org/1999/xlink" x="0px" y="0px"
	 viewBox="0 0 247.3 67.4" style="enable-background:new 0 0 247.3 67.4;" xml:space="preserve">
<style type="text/css">
	.st0{fill:#FADE99;}
	.st1{fill:#35AB7A;}
	.st2{fill:#2B1819;}
	.st3{fill:#FFFFFF;}
	.st4{fill:#59172F;}
	.st5{fill:#C41B16;}
	.st6{fill:#FA9652;}
	.st7{fill:#E3D7BA;}
	.st8{fill:#F3FDDB;}
	.st9{fill:#FF9137;}
	.st10{fill:#00B078;}
	.st11{fill:#60092D;}
	.st12{fill:#D30000;}
	.st13{fill:#2E1718;}
	.st14{fill:#FFE7C6;}
	.st15{fill:#FCE08D;}
	.st16{fill:#FF0042;}
</style>
<g id="Group_5" transform="translate(188.022 -6.075) rotate(50)">
	<path id="Path_13" class="st8" d="M-31.2,96c-6.7,2.4-13.3,5-20,8c-5.6,2.5-11.3,5.2-16.9,8.1c0.2-0.8,0.4-1.7,0.6-2.5
		c5.9-3.8,11.9-7.3,17.9-10.5c-5.2,1-10.5,2.1-15.8,3.3c2-6.1,4.4-12.1,7.4-17.8c14.1-5.9,28.7-10.8,43.6-14.5
		c1.1,14.5,3.3,29,6.6,43.2c-4,6.4-9,13.2-14.4,20.2c-1.7-5.5-3.3-11.1-4.7-16.8C-28.5,109.9-30,103-31.2,96z"/>
	<path id="Path_14" class="st9" d="M-51.2,170.5c-7.4,9.2-13.1,15.6-15.2,15.1c-2-0.5-4.6-8.8-5.8-21.3c4.8-3.3,9.6-6.5,14.4-9.5
		C-55.7,160.2-53.6,165.4-51.2,170.5z"/>
	<path id="Path_15" class="st8" d="M-72.2,163.7c-0.7-8.1-0.7-16.3-0.1-24.4c8.5-5.2,17.3-10,26.3-14.3c2.6,9.5,5.7,18.6,9.1,27.5
		c-4.9,6.3-9.7,12.3-13.9,17.5c-2.3-5.2-4.6-10.5-6.6-16C-62.5,157.1-67.4,160.3-72.2,163.7z"/>
	<path id="Path_16" class="st3" d="M-57.8,154.8c-4.8,3-9.6,6.2-14.4,9.5c0-0.2,0-0.4,0-0.6c4.9-3.4,9.8-6.6,14.7-9.6
		c2.1,5.4,4.3,10.8,6.6,16c-0.1,0.1-0.2,0.3-0.3,0.4C-53.5,165.4-55.7,160.2-57.8,154.8z"/>
	<path id="Path_17" class="st10" d="M-33.5,132.5c0.8,4.1,1.8,8.2,2.8,12.1c-2,2.5-3.9,5-5.9,7.5c-1-2.5-1.9-5.1-2.8-7.6
		c-2.3-6.6-4.4-13.3-6.4-20.1c-6.4,3.1-12.8,6.4-19.1,10c-2.5,1.4-4.9,2.9-7.4,4.4c0.5-6,1.2-11.9,2.3-17.8
		c3.5-2.5,7.1-4.9,10.6-7.1c-3.2,0.8-6.5,1.6-9.7,2.4c0.3-1.4,0.6-2.7,1-4.1c5.6-2.9,11.2-5.6,16.9-8.1c6.6-2.9,13.3-5.6,20-8
		c1.2,7,2.7,13.9,4.3,20.6c1.4,5.7,3,11.3,4.7,16.8c-2,2.6-4,5.3-6.1,8C-30,138.5-31.8,135.5-33.5,132.5z"/>
	<path id="Path_18" class="st11" d="M-72.4,139.3c0-0.2,0-0.4,0.1-0.6c2.5-1.5,4.9-2.9,7.4-4.4c6.3-3.6,12.7-6.9,19.1-10
		c1.9,6.9,4,13.6,6.3,20.1c0.9,2.6,1.8,5.1,2.8,7.6c-0.1,0.1-0.2,0.3-0.4,0.4c-3.4-8.9-6.5-18-9.1-27.5
		C-55.1,129.4-63.8,134.1-72.4,139.3z"/>
	<path id="Path_19" class="st12" d="M-58,84.6c3.6-6.9,7.7-12.8,12-16.9c4.7-4.4,9.5-9.5,14.5-14.6c12.1-3.3,24.4-5.9,36.8-7.8
		C5.1,57.4,5.6,69.5,6.8,81.5c-1.5,2.9-2.9,5.8-4.1,8.6c-1.6-4.2-3.1-8.4-4.5-12.7c-0.2,8,0,15.8,0.5,23.5c-1.8,4.3-4,8.4-6.5,12.3
		c-3.3-14.2-5.5-28.6-6.6-43.2C-29.2,73.8-43.8,78.7-58,84.6z"/>
	<path id="Path_20" class="st8" d="M5.9,44.7c-7,1-14,2.3-21.1,3.8c-5.2,1.1-10.3,2.4-15.5,3.8c1.9-2,3.8-3.9,5.8-5.9
		c4.8-1.8,9.6-3.4,14.5-4.9c-3.1-0.1-6.2-0.2-9.3-0.2c5.6-5.6,11.5-10.9,17.7-15.8c10-1.4,19.9-2.4,29.7-2.8
		c-1.2,9.6-1.9,19.2-2.1,28.8c-1.8,2.7-3.7,5.5-5.6,8.4c-1-1.9-2-3.7-2.9-5.6c0.5,2.6,1,5.2,1.6,7.8c-3.9,6-7.9,12.4-11.2,18.7
		c-0.5-4.9-0.9-9.9-1.1-15C5.8,58.8,5.7,51.8,5.9,44.7z"/>
	<path id="Path_21" class="st13" d="M-15.2,48.6c7.1-1.5,14.1-2.8,21.1-3.8c-0.2,7.1-0.1,14.1,0.2,21c0.2,5,0.6,10,1.1,15
		c-0.1,0.3-0.3,0.5-0.4,0.8c-1.3-12-1.7-24.1-1.4-36.2c-12.4,1.8-24.7,4.4-36.8,7.8c0.2-0.2,0.5-0.5,0.7-0.7
		C-25.6,50.9-20.4,49.7-15.2,48.6z"/>
	<path id="Path_22" class="st9" d="M28.1,22.1C21,22.4,13.9,23,6.7,23.8c-2.7,0.3-5.4,0.7-8.1,1c3.4-2.7,7-5.2,10.8-7.4
		c0.8,0.1,1.5,0.1,2.3,0.2c-0.5-0.2-1-0.4-1.5-0.6c10.4-5.8,19.3-7.2,24.6-0.9c7.2,8.5,0.3,20.5-8.9,34.6c0.1-2.5,0.2-5.1,0.3-7.7
		C26.5,36.1,27.2,29.2,28.1,22.1z"/>
	<path id="Path_23" class="st9" d="M-2.2,25.5c0.3-0.2,0.5-0.4,0.8-0.6c2.7-0.4,5.4-0.7,8.1-1c7.2-0.8,14.3-1.4,21.4-1.7
		c-0.9,7-1.5,14-1.9,20.9c-0.1,2.6-0.2,5.1-0.3,7.7c-0.2,0.3-0.3,0.5-0.5,0.8c0.2-9.6,0.9-19.3,2.1-28.8C17.7,23.1,7.8,24-2.2,25.5z
		"/>
	<g id="Group_4" transform="translate(7.93 0)">
		<path id="Path_24" class="st11" d="M-72.8,178.9C-53.5,98.8-7.3,32.9,61.9-11.6c1.8-0.5,4.8-1,5.6,0.3
			C-2,31.7-52.3,99.8-72.8,178.9z"/>
	</g>
</g>
</svg>
