<?xml version="1.0" encoding="utf-8"?>
<!-- Generator: Adobe Illustrator 23.0.2, SVG Export Plug-In . SVG Version: 6.00 Build 0)  -->
<svg version="1.1" id="Layer_1" xmlns="http://www.w3.org/2000/svg" xmlns:xlink="http://www.w3.org/1999/xlink" x="0px" y="0px"
	 viewBox="0 0 257.9 330.8" style="enable-background:new 0 0 257.9 330.8;" xml:space="preserve">
<style type="text/css">
	.st0{fill:#FADE99;}
	.st1{fill:#35AB7A;}
	.st2{fill:#2B1819;}
	.st3{fill:#FFFFFF;}
	.st4{fill:#59172F;}
	.st5{fill:#C41B16;}
	.st6{fill:#FA9652;}
	.st7{fill:#E3D7BA;}
	.st8{fill:#F3FDDB;}
	.st9{fill:#FF9137;}
	.st10{fill:#00B078;}
	.st11{fill:#60092D;}
	.st12{fill:#D30000;}
	.st13{fill:#2E1718;}
	.st14{fill:#FFE7C6;}
	.st15{fill:#FCE08D;}
	.st16{fill:#FF0042;}
</style>
<g id="Group_289" transform="translate(-672.098 -90.189)">
	<g id="Group_204" transform="translate(672.098 90.189)">
		<g id="Group_173">
			<g id="Group_172">
				<path id="Path_117" class="st9" d="M54,330.8c0,0-36-27-47.9-42.9L130.8,1.4L54,330.8z"/>
			</g>
		</g>
		<g id="Group_175" transform="translate(124.823)">
			<g id="Group_174">
				<path id="Path_118" class="st9" d="M82.9,330.8c0,0,36-27,48-42.9L6,1.4L82.9,330.8z"/>
			</g>
		</g>
		<g id="Group_177" transform="translate(185.092 229.491)">
			<g id="Group_176">
				<path id="Path_119" class="st10" d="M46.1,1.4C39.1,9.5,17.2,23.7,6,29.3l16.6,72c0,0,36-27,48-42.9L46.1,1.4z"/>
			</g>
		</g>
		<g id="Group_179" transform="translate(0 229.491)">
			<g id="Group_178">
				<path id="Path_120" class="st10" d="M30.5,1.4c7,8.1,28.9,22.3,40.1,27.9l-16.6,72c0,0-36-27-47.9-42.9L30.5,1.4z"/>
			</g>
		</g>
		<g id="Group_181" transform="translate(47.94 0.002)">
			<g id="Group_180">
				<path id="Path_121" class="st14" d="M6,330.8h153.8L82.9,1.4L6,330.8z"/>
			</g>
		</g>
		<g id="Group_183" transform="translate(78.058 126.583)">
			<g id="Group_182">
				<path id="Path_122" class="st11" d="M6,204.3L52.8,1.4l46.8,202.8H6z"/>
			</g>
		</g>
		<g id="Group_185" transform="translate(187.848 242.86)">
			<g id="Group_184">
				<path id="Path_123" class="st12" d="M7.9,35.9C23.5,28.4,38.4,19.4,52.3,9l-3.2-7.6C35.6,11.6,21.2,20.5,6,27.9L7.9,35.9z"/>
			</g>
		</g>
		<g id="Group_187" transform="translate(198.06 274.353)">
			<g id="Group_186">
				<path id="Path_124" class="st12" d="M7.9,49c9-5.9,29.9-20.5,47.9-39.6l-3.4-8C36.1,19.4,16.2,33.8,6,40.7L7.9,49z"/>
			</g>
		</g>
		<g id="Group_189" transform="translate(15.508 242.86)">
			<g id="Group_188">
				<path id="Path_125" class="st12" d="M50.5,35.9C34.8,28.4,19.9,19.4,6,9l3.2-7.6c13.5,10.2,27.9,19,43.1,26.5L50.5,35.9z"/>
			</g>
		</g>
		<g id="Group_191" transform="translate(1.772 274.353)">
			<g id="Group_190">
				<path id="Path_126" class="st12" d="M53.9,49C44.9,43.1,24,28.5,6,9.4l3.4-8c16.3,17.9,36.2,32.4,46.4,39.3L53.9,49z"/>
			</g>
		</g>
		<g id="Group_193" transform="translate(21.808 274.708)">
			<g id="Group_192">
				<path id="Path_127" class="st9" d="M6,8.2l10.6,7.7l2.4-14.5l0,0L6,8.2z"/>
			</g>
		</g>
		<g id="Group_195" transform="translate(15.569 262.284)">
			<g id="Group_194">
				<path id="Path_128" class="st15" d="M19.2,9.4l-10.4-8L6,15.8l0,0L19.2,9.4z"/>
			</g>
		</g>
		<g id="Group_197" transform="translate(38.56 279.412)">
			<g id="Group_196">
				<path id="Path_129" class="st15" d="M19.2,9.4l-10.4-8L6,15.8l0,0L19.2,9.4z"/>
			</g>
		</g>
		<g id="Group_199" transform="translate(216.197 273.965)">
			<g id="Group_198">
				<path id="Path_130" class="st9" d="M19,8.2L8.4,15.9L6,1.4l0,0L19,8.2z"/>
			</g>
		</g>
		<g id="Group_201" transform="translate(222.273 261.541)">
			<g id="Group_200">
				<path id="Path_131" class="st15" d="M6,9.4l10.4-8l2.8,14.4l0,0L6,9.4z"/>
			</g>
		</g>
		<g id="Group_203" transform="translate(199.283 278.669)">
			<g id="Group_202">
				<path id="Path_132" class="st15" d="M6,9.4l10.4-8l2.8,14.4l0,0L6,9.4z"/>
			</g>
		</g>
	</g>
</g>
</svg>
